<svg width="131" height="27" viewBox="0 0 131 27" fill="none" xmlns="http://www.w3.org/2000/svg">
<path d="M29.6613 13.8845C29.7069 13.4742 29.4397 13.0551 29.3004 12.8968C30.7034 13.4886 31.3681 15.0713 31.525 15.7888C35.9692 16.8261 35.7771 19.1303 35.6676 19.0919C36.31 19.2671 36.8599 20.3085 37.0546 20.8073V23.271L27.2952 23.2177L29.8826 22.6322V21.6103H35.7771C34.5422 21.4095 31.9046 20.9935 31.233 20.9351C30.5615 20.8767 30.2346 20.3267 30.1552 20.0591V19.0919H34.0799L30.1552 18.5991V18.2342L34.0799 18.4532C32.7952 18.1466 30.9281 17.8874 30.1552 17.7962V17.267C31.3325 17.3436 33.5692 17.504 34.0052 17.5885C32.1822 16.9772 30.5918 16.6586 30.0183 16.5751C29.1614 16.0679 26.7005 15.4439 25.5772 15.1952C27.0664 15.1193 29.2497 15.4169 30.1552 15.5752C29.0762 14.9369 25.4125 14.4734 23.7156 14.3214L22.5758 11.7H23.1077L23.9625 13.1057L29.6613 13.8845Z" fill="#14171F"/>
<path d="M29.6412 20.8746C27.8015 16.3231 25.0895 17.486 23.4559 17.9723C25.9934 17.7184 26.945 19.8014 27.1036 20.8746H29.6412Z" fill="#14171F"/>
<path d="M21.0927 11.4207V11.4234L20.295 11.8826H19.5107C19.0005 11.8826 18.5869 12.2962 18.5869 12.8064V17.0984C18.5869 17.6086 19.0005 18.0222 19.5107 18.0222H20.2895L21.0919 18.4841H19.5107C18.7454 18.4841 18.125 17.8637 18.125 17.0984V12.8064C18.125 12.0411 18.7454 11.4207 19.5107 11.4207H21.0927Z" fill="#14171F"/>
<path d="M29.3694 12.017C25.313 7.47997 19.4447 7.97992 17.0176 8.79703C19.9974 8.35489 21.6716 9.14146 22.1362 9.59001C23.4819 9.57078 25.1801 10.2869 25.8609 10.6474L22.6889 10.0947L23.3137 10.9598C24.8516 10.9598 27.9916 11.6646 29.3694 12.017Z" fill="#14171F"/>
<path d="M15.3601 8.89601L0.989502 16.0494L15.3601 10.671V8.89601Z" fill="#14171F"/>
<path d="M15.3601 11.7629L1.14865 17.5506L15.3601 13.5379V11.7629Z" fill="#14171F"/>
<path d="M15.3603 14.6291L1.1022 19.6064L15.3603 16.4041V14.6291Z" fill="#14171F"/>
<path d="M15.3602 17.4998L1.05012 21.4044L15.3602 19.2749V17.4998Z" fill="#14171F"/>
<path d="M1.5014 23.2128V22.1878L21.5999 19.7198V20.1373L15.3372 20.9492L15.7547 22.1878H19.2572L15.9867 22.6657H21.2752V21.5523L21.5999 21.3434V23.2128H1.5014Z" fill="#14171F"/>
<path d="M16.6149 8.12069C16.3626 7.29386 15.3769 7.12212 14.9156 7.1396V8.03315C15.7425 7.96311 15.9726 8.51784 15.9842 8.80396L16.3346 19.7004H17.0178C16.9886 16.185 16.8672 8.94752 16.6149 8.12069Z" fill="#14171F"/>
<path d="M20.4102 15.344L19.8499 14.5682C19.7985 14.7098 19.7699 14.8667 19.7699 15.032C19.7699 15.6577 20.1795 16.1648 20.685 16.1648C20.8046 16.1648 20.9188 16.1364 21.0235 16.0848C21.2025 16.4106 21.5489 16.6315 21.9468 16.6315H22.5574V16.4005H21.9468C21.6285 16.4005 21.3524 16.2195 21.2159 15.9547C21.4484 15.7493 21.5999 15.4126 21.5999 15.032C21.5999 14.4063 21.1903 13.8992 20.685 13.8992C20.5163 13.8992 20.3583 13.9556 20.2226 14.0542L20.4102 15.344Z" fill="#14171F"/>
<path fill-rule="evenodd" clip-rule="evenodd" d="M26.0449 22.3392C26.0449 22.6466 26.002 22.9409 25.9234 23.2128H22.31C22.2315 22.9409 22.1886 22.6466 22.1886 22.3392C22.1886 20.9611 23.0519 19.8439 24.1167 19.8439C25.1816 19.8439 26.0449 20.9611 26.0449 22.3392ZM23.3682 20.3875C24.0206 20.1652 25.01 19.8281 25.6942 21.6878H24.6912C24.6285 21.2218 24.2524 20.3172 23.2494 20.4275C23.2875 20.415 23.3272 20.4015 23.3682 20.3875Z" fill="#14171F"/>
<path d="M43 23.0797V9.59613H45.4102V15.5633H45.4476L51.1835 9.59613H54.0982L47.2225 16.6153L47.2412 15.5442L54.5466 23.0797H51.5385L45.4476 16.8448H45.4102V23.0797H43Z" fill="#14171F"/>
<path d="M58.4749 23.271C57.3165 23.271 56.4508 22.9459 55.8778 22.2956C55.3049 21.6453 55.0184 20.6508 55.0184 19.312V13.4213H57.3539V19.2929C57.3539 20.0069 57.4971 20.536 57.7836 20.8803C58.0701 21.2118 58.506 21.3776 59.0915 21.3776C59.7516 21.3776 60.2872 21.148 60.6983 20.689C61.1218 20.23 61.3335 19.6244 61.3335 18.8721V13.4213H63.669V23.0797H61.3896V21.1098H61.6512C61.3771 21.7983 60.9598 22.3338 60.3993 22.7164C59.8513 23.0861 59.2098 23.271 58.4749 23.271Z" fill="#14171F"/>
<path d="M66.2045 23.0797V15.8311C66.2045 15.4358 66.192 15.0342 66.1671 14.6262C66.1422 14.2182 66.1048 13.8165 66.055 13.4213H68.3157L68.5026 15.3338H68.2784C68.5773 14.6581 69.0195 14.1417 69.6049 13.7847C70.1903 13.4149 70.8692 13.23 71.6415 13.23C72.75 13.23 73.5846 13.5488 74.1451 14.1863C74.7056 14.8238 74.9859 15.8184 74.9859 17.1699V23.0797H72.6504V17.2847C72.6504 16.5069 72.5009 15.9522 72.202 15.6207C71.9155 15.2765 71.4795 15.1043 70.8941 15.1043C70.1717 15.1043 69.5987 15.3338 69.1752 15.7929C68.7517 16.2519 68.5399 16.8639 68.5399 17.6289V23.0797H66.2045Z" fill="#14171F"/>
<path d="M76.0422 23.0797L81.4606 15.6972V16.7491L76.2291 9.59613H79.0503L82.8432 14.9704H82.0771L85.8513 9.59613H88.6912L83.441 16.7491V15.6972L88.878 23.0797H86.0381L82.0398 17.4568H82.8618L78.8635 23.0797H76.0422Z" fill="#14171F"/>
<path d="M89.9972 23.0797V13.4213H92.3327V23.0797H89.9972ZM89.8664 11.6043V9.271H92.4634V11.6043H89.8664Z" fill="#14171F"/>
<path d="M94.8688 23.0797V15.8311C94.8688 15.4358 94.8564 15.0342 94.8315 14.6262C94.8066 14.2182 94.7692 13.8165 94.7194 13.4213H96.9801L97.167 15.3338H96.9428C97.2417 14.6581 97.6839 14.1417 98.2693 13.7847C98.8547 13.4149 99.5336 13.23 100.306 13.23C101.414 13.23 102.249 13.5488 102.809 14.1863C103.37 14.8238 103.65 15.8184 103.65 17.1699V23.0797H101.315V17.2847C101.315 16.5069 101.165 15.9522 100.866 15.6207C100.58 15.2765 100.144 15.1043 99.5585 15.1043C98.836 15.1043 98.2631 15.3338 97.8396 15.7929C97.4161 16.2519 97.2043 16.8639 97.2043 17.6289V23.0797H94.8688Z" fill="#14171F"/>
<path d="M112.666 23.271C111.184 23.271 109.938 22.9905 108.929 22.4295C107.92 21.8684 107.16 21.0715 106.65 20.0388C106.139 19.006 105.884 17.7819 105.884 16.3666C105.884 14.9386 106.158 13.7082 106.706 12.6754C107.254 11.6298 108.039 10.8266 109.06 10.2655C110.094 9.69176 111.333 9.40488 112.778 9.40488C113.737 9.40488 114.578 9.53876 115.3 9.80652C116.023 10.0615 116.658 10.4377 117.206 10.9349L116.403 12.8475C116.004 12.5287 115.624 12.2737 115.263 12.0825C114.902 11.8912 114.528 11.7573 114.142 11.6808C113.756 11.5916 113.307 11.547 112.797 11.547C111.352 11.547 110.256 11.9677 109.508 12.8092C108.773 13.638 108.406 14.8302 108.406 16.3858C108.406 17.9413 108.755 19.1271 109.452 19.9431C110.162 20.7592 111.271 21.1672 112.778 21.1672C113.289 21.1672 113.799 21.1162 114.31 21.0142C114.833 20.9122 115.344 20.7655 115.842 20.5743L115.394 21.6071V17.5715H112.311V15.7737H117.393V22.2573C116.783 22.5761 116.054 22.8247 115.207 23.0032C114.36 23.1817 113.513 23.271 112.666 23.271Z" fill="#14171F"/>
<path d="M124.217 23.271C123.245 23.271 122.405 23.067 121.695 22.659C120.985 22.251 120.43 21.6708 120.032 20.9185C119.646 20.1663 119.453 19.2737 119.453 18.2409C119.453 17.2082 119.646 16.322 120.032 15.5825C120.43 14.8302 120.985 14.25 121.695 13.842C122.405 13.434 123.245 13.23 124.217 13.23C125.188 13.23 126.029 13.434 126.739 13.842C127.462 14.25 128.016 14.8302 128.402 15.5825C128.801 16.322 129 17.2082 129 18.2409C129 19.2737 128.801 20.1663 128.402 20.9185C128.016 21.6708 127.462 22.251 126.739 22.659C126.029 23.067 125.188 23.271 124.217 23.271ZM124.217 21.4349C124.952 21.4349 125.537 21.1735 125.973 20.6508C126.409 20.1153 126.627 19.312 126.627 18.2409C126.627 17.1699 126.409 16.373 125.973 15.8502C125.537 15.3275 124.952 15.0661 124.217 15.0661C123.482 15.0661 122.897 15.3275 122.461 15.8502C122.025 16.373 121.807 17.1699 121.807 18.2409C121.807 19.312 122.025 20.1153 122.461 20.6508C122.897 21.1735 123.482 21.4349 124.217 21.4349Z" fill="#14171F"/>
</svg>
