<svg width="24.000000" height="24.000000" viewBox="0 0 24 24" fill="none" xmlns="http://www.w3.org/2000/svg" xmlns:xlink="http://www.w3.org/1999/xlink">
	<desc>
			Created with Pixso.
	</desc>
	<defs>
		<clipPath id="clip11_268182">
			<rect id="message-chat-circle" width="24.000000" height="24.000000" fill="white" fill-opacity="0"/>
		</clipPath>
	</defs>
	<rect id="message-chat-circle" width="24.000000" height="24.000000" fill="#FFFFFF" fill-opacity="0"/>
	<g clip-path="url(#clip11_268182)">
		<path id="Icon" d="M12.82 17.9C13.22 17.96 13.63 18 14.05 18C15.05 18 16 17.81 16.89 17.48C17.08 17.41 17.17 17.38 17.25 17.36C17.32 17.35 17.37 17.34 17.45 17.34C17.52 17.34 17.61 17.35 17.77 17.38L20.96 17.84C21.31 17.89 21.49 17.92 21.62 17.86C21.73 17.82 21.82 17.73 21.87 17.61C21.93 17.48 21.91 17.31 21.87 16.95L21.46 13.68C21.44 13.52 21.43 13.44 21.44 13.37C21.44 13.3 21.44 13.25 21.46 13.18C21.48 13.1 21.51 13.01 21.58 12.83C21.92 11.95 22.1 10.99 22.1 10C22.1 5.58 18.5 2 14.05 2C9.6 2 6 5.58 6 10C6 10.41 6.03 10.82 6.09 11.22M13 16.5C13 13.46 10.59 11 7.63 11C4.66 11 2.26 13.46 2.26 16.5C2.26 17.11 2.36 17.69 2.53 18.24C2.61 18.47 2.65 18.59 2.66 18.67C2.67 18.75 2.68 18.8 2.67 18.88C2.67 18.96 2.65 19.05 2.61 19.23L2 22L4.99 21.59C5.15 21.56 5.24 21.55 5.31 21.55C5.38 21.55 5.42 21.56 5.5 21.57C5.57 21.59 5.67 21.62 5.88 21.7C6.43 21.89 7.01 22 7.63 22C10.59 22 13 19.53 13 16.5Z" stroke="#FFFFFF" stroke-opacity="1.000000" stroke-width="2.000000" stroke-linejoin="round" stroke-linecap="round"/>
	</g>
</svg>
