<svg width="21.000000" height="21.000000" viewBox="0 0 21 21" fill="none" xmlns="http://www.w3.org/2000/svg" xmlns:xlink="http://www.w3.org/1999/xlink">
	<desc>
			Created with Pixso.
	</desc>
	<defs/>
	<path id="Icon" d="M6.38 6.85C6.32 6.72 6.29 6.66 6.26 6.58C6.18 6.3 6.24 5.96 6.41 5.72C6.46 5.65 6.51 5.6 6.63 5.48C6.98 5.13 7.15 4.96 7.27 4.78C7.7 4.12 7.7 3.26 7.27 2.6C7.15 2.43 6.98 2.25 6.63 1.9L6.43 1.71C5.9 1.17 5.64 0.91 5.35 0.76C4.78 0.48 4.11 0.48 3.55 0.76C3.26 0.91 3 1.17 2.46 1.71L2.31 1.86C1.78 2.39 1.51 2.66 1.31 3.02C1.08 3.42 0.92 4.04 0.92 4.5C0.93 4.91 1.01 5.19 1.17 5.76C2.03 8.79 3.65 11.65 6.04 14.04C8.43 16.43 11.29 18.05 14.32 18.91C14.89 19.07 15.17 19.15 15.58 19.16C16.04 19.16 16.66 19 17.06 18.77C17.42 18.57 17.69 18.3 18.22 17.77L18.37 17.62C18.9 17.08 19.17 16.82 19.31 16.53C19.6 15.97 19.6 15.3 19.31 14.73C19.17 14.44 18.9 14.18 18.37 13.65L18.18 13.45C17.83 13.1 17.65 12.93 17.48 12.81C16.82 12.38 15.96 12.38 15.3 12.81C15.12 12.93 14.95 13.1 14.6 13.45C14.48 13.57 14.43 13.62 14.36 13.67C14.12 13.84 13.78 13.9 13.5 13.82C13.42 13.79 13.36 13.76 13.23 13.7C11.78 13.01 10.42 12.06 9.22 10.86C8.02 9.66 7.07 8.3 6.38 6.85Z" stroke="#FFFFFF" stroke-opacity="1.000000" stroke-width="2.000000" stroke-linejoin="round"/>
</svg>
