<svg width="15" height="15" viewBox="0 0 15 15" fill="none" xmlns="http://www.w3.org/2000/svg">
<path d="M14.4497 4.95747C14.0943 4.17214 13.5841 3.46705 12.9363 2.85942C12.2886 2.25753 11.5376 1.78174 10.7007 1.44926C9.83512 1.10532 8.91794 0.93335 7.9721 0.93335C7.02626 0.93335 6.10907 1.10532 5.24349 1.44926C4.40656 1.78174 3.65562 2.25179 3.00787 2.85942C2.36011 3.46705 1.84993 4.17214 1.49453 4.95747C1.12766 5.77146 0.938477 6.64278 0.938477 7.53703C0.938477 9.10197 1.52317 10.6038 2.59512 11.7962L2.02189 14.9203L5.07152 13.5617C5.98296 13.9515 6.95173 14.1464 7.96636 14.1464C8.9122 14.1464 9.82938 13.9745 10.695 13.6305C11.5319 13.2981 12.2828 12.828 12.9306 12.2204C13.5783 11.6127 14.0885 10.9077 14.4439 10.1223C14.8108 9.30833 15 8.43701 15 7.54276C15.0057 6.64278 14.8165 5.7772 14.4497 4.95747Z" fill="white"/>
<path d="M10.8266 8.85551C10.5285 8.70647 10.3107 8.61475 10.1559 8.55743C10.0585 8.52303 9.8292 8.41985 9.74895 8.48291C9.49672 8.68927 9.22729 9.27397 8.94068 9.38289C8.22986 9.24531 7.57065 8.75806 7.05474 8.25934C6.82544 8.04151 6.40125 7.42242 6.30953 7.25618C6.29233 7.08421 6.60187 6.85491 6.67066 6.72307C7.02606 6.3218 6.75665 6.06958 6.71079 5.90334C6.63054 5.73137 6.49297 5.42182 6.37259 5.1696C6.26941 5.00336 6.24646 4.75687 6.06302 4.66515C5.28342 4.26389 4.83632 5.06642 4.65288 5.48488C3.54653 8.15043 10.1961 13.2236 11.5489 9.72683C11.6177 9.42301 11.589 9.30837 11.4858 9.17079C11.2795 9.02748 11.0387 8.96442 10.8266 8.85551Z" fill="#25D366"/>
</svg>
