<svg width="50" height="50" viewBox="0 0 50 50" fill="none" xmlns="http://www.w3.org/2000/svg">
<g clip-path="url(#clip0_77_191)">
<path d="M38.3118 8.28939C38.3336 8.29097 38.3553 8.29255 38.3775 8.29255C38.4151 8.29255 38.4526 8.28939 38.4894 8.28425C39.4739 8.30442 40.2619 9.10738 40.2631 10.0919C40.2631 10.5393 40.6258 10.902 41.0731 10.902C41.5205 10.902 41.8832 10.5393 41.8832 10.0919C41.8812 8.48162 40.7603 7.08851 39.1876 6.74201V5.96358C39.1876 5.51622 38.8249 5.1535 38.3775 5.1535C37.9301 5.1535 37.5674 5.51622 37.5674 5.96358V6.7788C35.9045 7.22339 34.8287 8.83208 35.0529 10.5389C35.2772 12.2456 36.732 13.5217 38.4534 13.5217C39.453 13.5217 40.2631 14.3321 40.2631 15.3317C40.2631 16.3308 39.453 17.1413 38.4534 17.1413C37.4539 17.1413 36.6438 16.3308 36.6438 15.3317C36.6438 14.8843 36.2811 14.5216 35.8337 14.5216C35.3864 14.5216 35.0237 14.8843 35.0237 15.3317C35.0256 16.8838 36.0683 18.2417 37.5674 18.6448V19.5324C37.5674 19.9797 37.9301 20.3425 38.3775 20.3425C38.8249 20.3425 39.1876 19.9797 39.1876 19.5324V18.682C40.8983 18.3074 42.0521 16.7038 41.8634 14.9626C41.6752 13.2214 40.2049 11.9019 38.4534 11.9023C37.4816 11.9027 36.683 11.1353 36.6446 10.1643C36.6066 9.19321 37.3427 8.36533 38.3118 8.28978V8.28939Z" fill="black"/>
<path d="M38.4996 1.19293C33.5162 1.19293 29.2633 4.44471 27.67 8.79888H7.56402C7.11864 8.79888 6.75711 9.20036 6.75394 9.64535L6.5625 38.0629H0.831437C0.384075 38.0629 0 38.3869 0 38.835V42.4412C0.0102841 45.8362 2.68417 48.6252 6.07558 48.7786V48.7964H31.0867V48.7727C31.2892 48.7802 31.3727 48.7964 31.5009 48.7964H31.5183C35.0283 48.7909 37.8711 45.9438 37.8711 42.4337V24.2006C38.0736 24.2117 38.288 24.2176 38.4977 24.2176C44.8395 24.2176 50.0001 19.0471 50.0001 12.7049C50.0001 6.36311 44.8418 1.19293 38.4996 1.19293ZM6.38371 47.1763H6.37857C3.75808 47.1727 1.63202 45.0538 1.62016 42.4329V39.6831H25.1124V42.4214C25.1136 44.112 25.7888 45.7326 26.9881 46.9243C27.0731 47.0094 27.1787 47.075 27.2677 47.1763H6.38371ZM36.251 42.4329C36.2514 45.049 34.1332 47.1712 31.5175 47.1763H31.502C28.8756 47.1715 26.7456 45.0483 26.7326 42.4222V38.835C26.7393 38.6278 26.6602 38.4272 26.5134 38.2809C26.3667 38.1345 26.1661 38.0558 25.9593 38.0629H8.18265L8.36856 10.419H27.2203C27.0767 11.1607 27.0023 11.9138 26.9984 12.6689C26.9968 14.2657 27.3298 15.8447 27.9762 17.3047H20.3247C19.877 17.3047 19.5146 17.6674 19.5146 18.1148C19.5146 18.5621 19.877 18.9248 20.3247 18.9248H28.8551C30.5262 21.5529 33.1978 23.385 36.251 23.9981V42.4329ZM38.4996 22.5979C33.0427 22.5979 28.6185 18.1741 28.6189 12.7168C28.6189 7.25941 33.0427 2.83563 38.5 2.83563C43.957 2.83563 48.3808 7.25981 48.3808 12.7168C48.3748 18.1713 43.9546 22.5919 38.4996 22.5979Z" fill="#E8AA31"/>
<path d="M15.1241 22.6959C13.6942 22.6959 12.5312 23.822 12.5312 25.2065C12.5312 26.5909 13.6942 27.717 15.1241 27.717C16.554 27.717 17.7173 26.5909 17.7173 25.2065C17.7173 23.822 16.554 22.6959 15.1241 22.6959ZM15.1241 26.0968C14.5873 26.0968 14.1514 25.6973 14.1514 25.2065C14.1514 24.7152 14.5877 24.3161 15.1241 24.3161C15.6604 24.3161 16.0971 24.7156 16.0971 25.2065C16.0971 25.6973 15.6604 26.0968 15.1241 26.0968Z" fill="black"/>
<path d="M19.5117 25.2029C19.5117 25.6503 19.874 26.013 20.3218 26.013H31.1218C31.5691 26.013 31.9318 25.6503 31.9318 25.2029C31.9318 24.7555 31.5691 24.3928 31.1218 24.3928H20.3218C19.874 24.3928 19.5117 24.7555 19.5117 25.2029Z" fill="#E8AA31"/>
<path d="M15.1241 15.6541C13.6942 15.6541 12.5312 16.7806 12.5312 18.165C12.5312 19.5494 13.6942 20.6755 15.1241 20.6755C16.554 20.6755 17.7173 19.5494 17.7173 18.165C17.7173 16.7806 16.554 15.6541 15.1241 15.6541ZM15.1241 19.0553C14.5873 19.0553 14.1514 18.6558 14.1514 18.165C14.1514 17.6741 14.5877 17.2742 15.1241 17.2742C15.6604 17.2742 16.0971 17.6737 16.0971 18.165C16.0971 18.6558 15.6604 19.0557 15.1241 19.0557V19.0553Z" fill="black"/>
<path d="M15.1241 29.7371C13.6942 29.7371 12.5312 30.8632 12.5312 32.2476C12.5312 33.632 13.6942 34.7581 15.1241 34.7581C16.554 34.7581 17.7173 33.632 17.7173 32.2476C17.7173 30.8632 16.554 29.7371 15.1241 29.7371ZM15.1241 33.138C14.5873 33.138 14.1514 32.7389 14.1514 32.2476C14.1514 31.7567 14.5877 31.3572 15.1241 31.3572C15.6604 31.3572 16.0971 31.7567 16.0971 32.2476C16.0971 32.7385 15.6604 33.138 15.1241 33.138Z" fill="black"/>
<path d="M31.1218 31.481H20.3218C19.874 31.481 19.5117 31.8437 19.5117 32.2911C19.5117 32.7385 19.874 33.1012 20.3218 33.1012H31.1218C31.5691 33.1012 31.9318 32.7385 31.9318 32.2911C31.9318 31.8437 31.5691 31.481 31.1218 31.481Z" fill="#E8AA31"/>
</g>
<defs>
<clipPath id="clip0_77_191">
<rect width="50" height="50" fill="white"/>
</clipPath>
</defs>
</svg>
