<svg width="50" height="50" viewBox="0 0 50 50" fill="none" xmlns="http://www.w3.org/2000/svg">
<g clip-path="url(#clip0_77_143)">
<path d="M12.0977 22.1938H5.65084C5.2051 22.1938 4.84375 22.5552 4.84375 23.0009C4.84375 23.4467 5.2051 23.808 5.65084 23.808H12.0977C12.5435 23.808 12.9048 23.4467 12.9048 23.0009C12.9048 22.5552 12.5435 22.1938 12.0977 22.1938Z" fill="black"/>
<path d="M16.1332 27.0364H5.65084C5.2051 27.0364 4.84375 27.3978 4.84375 27.8435C4.84375 28.2893 5.2051 28.6506 5.65084 28.6506H16.1332C16.579 28.6506 16.9403 28.2893 16.9403 27.8435C16.9403 27.3978 16.579 27.0364 16.1332 27.0364Z" fill="black"/>
<path d="M33.0723 31.879H5.65085C5.2051 31.879 4.84375 32.2403 4.84375 32.6861C4.84375 33.1318 5.2051 33.4932 5.65085 33.4932H33.0723C33.5181 33.4932 33.8794 33.1318 33.8794 32.6861C33.8794 32.2403 33.5181 31.879 33.0723 31.879Z" fill="black"/>
<path d="M8.87922 36.7117H5.65084C5.2051 36.7117 4.84375 37.0731 4.84375 37.5188C4.84375 37.9646 5.2051 38.3259 5.65084 38.3259H8.87922C9.32496 38.3259 9.68631 37.9646 9.68631 37.5188C9.68631 37.0731 9.32496 36.7117 8.87922 36.7117Z" fill="black"/>
<path d="M16.9378 36.7117H13.7094C13.2637 36.7117 12.9023 37.0731 12.9023 37.5188C12.9023 37.9646 13.2637 38.3259 13.7094 38.3259H16.9378C17.3836 38.3259 17.7449 37.9646 17.7449 37.5188C17.7449 37.0731 17.3836 36.7117 16.9378 36.7117Z" fill="black"/>
<path d="M25.012 36.7117H21.7837C21.3379 36.7117 20.9766 37.0731 20.9766 37.5188C20.9766 37.9646 21.3379 38.3259 21.7837 38.3259H25.012C25.4578 38.3259 25.8191 37.9646 25.8191 37.5188C25.8191 37.0731 25.4578 36.7117 25.012 36.7117Z" fill="black"/>
<path d="M33.07 21.3868C32.4795 21.3868 31.9381 21.5541 31.4657 21.8297C30.9736 21.5443 30.4224 21.3868 29.8417 21.3868C28.0601 21.3868 26.6133 22.8336 26.6133 24.6152C26.6133 26.3967 28.0601 27.8435 29.8417 27.8435C30.4224 27.8435 30.9736 27.686 31.4657 27.4006C31.9381 27.6762 32.4795 27.8435 33.07 27.8435C34.8515 27.8435 36.2984 26.3967 36.2984 24.6152C36.2984 22.8336 34.8515 21.3868 33.07 21.3868ZM30.255 26.1703C30.1172 26.2097 29.9795 26.2293 29.8417 26.2293C28.9558 26.2293 28.2275 25.501 28.2275 24.6152C28.2275 23.7293 28.9558 23.001 29.8417 23.001C29.9795 23.001 30.1271 23.0305 30.255 23.06C29.9991 23.5226 29.8417 24.0443 29.8417 24.6152C29.8417 25.186 29.9991 25.7077 30.255 26.1703ZM33.07 26.2293C32.1842 26.2293 31.4558 25.501 31.4558 24.6152C31.4558 23.7293 32.1842 23.001 33.07 23.001C33.9559 23.001 34.6842 23.7293 34.6842 24.6152C34.6842 25.501 33.9559 26.2293 33.07 26.2293Z" fill="#E8AA31"/>
<path d="M48.3173 17.6564L14.4785 6.96736C14.2422 6.88862 12.3525 6.26854 11.4469 8.54218L8.66149 17.3513H2.42128C1.08269 17.3611 0 18.4438 0 19.7726V40.7472C0 42.0858 1.08269 43.1684 2.42128 43.1684H37.9137C38.7601 43.1684 39.4983 42.7354 39.9314 42.0759C39.9314 42.0759 41.0239 42.381 41.27 42.381C42.333 42.381 43.2582 41.7019 43.5732 40.6881L49.8921 20.6879C50.089 20.0777 50.2268 18.1682 48.3173 17.6564ZM12.008 12.1052L28.6321 17.3513H17.9135L11.0336 15.1761L12.008 12.1052ZM10.5513 16.7214L12.569 17.3611H10.3544L10.5513 16.7214ZM38.7208 40.7472H38.7109C38.7109 41.1901 38.3468 41.5543 37.9038 41.5543H2.42128C1.97836 41.5543 1.61419 41.1901 1.61419 40.7472V19.7726C1.61419 19.3297 1.97836 18.9655 2.42128 18.9655H37.9137C38.3566 18.9655 38.7208 19.3297 38.7208 19.7726V40.7472ZM42.0377 40.2058C41.9098 40.6192 41.4373 40.8653 41.0239 40.7275L40.3251 40.5109V26.1309L45.9256 27.9026L42.0377 40.2058ZM46.4078 26.3573L40.3251 24.438V21.0521L47.3823 23.2765L46.4078 26.3573ZM48.3567 20.2057L47.8744 21.7411L40.2857 19.3494C40.0791 18.2175 39.0948 17.3611 37.9137 17.3611H33.9865L12.4903 10.5698L12.9725 9.03431C13.1005 8.62092 13.5631 8.37485 13.9863 8.51265L47.8252 19.1919C48.5043 19.369 48.4157 19.999 48.3567 20.2057Z" fill="#E8AA31"/>
</g>
<defs>
<clipPath id="clip0_77_143">
<rect width="50" height="50" fill="white"/>
</clipPath>
</defs>
</svg>
