<svg width="50" height="50" viewBox="0 0 50 50" fill="none" xmlns="http://www.w3.org/2000/svg">
<g id="post-office 1" clip-path="url(#clip0_77_138)">
<path id="Vector" d="M49.9998 22.4776C49.9986 22.3958 49.9856 22.3145 49.9608 22.2367L46.6274 12.2367C46.5135 11.8949 46.1933 11.665 45.8332 11.6667H39.9998V0.833333C39.9998 0.373128 39.6267 0 39.1665 0H10.8332C10.373 0 9.99984 0.373128 9.99984 0.833333V11.6667H4.1665C3.80802 11.6671 3.48983 11.8966 3.3763 12.2367L0.0429687 22.2367C0.0181478 22.3145 0.00472005 22.3958 0.00390625 22.4776V22.5V25.8333C0.00390625 26.2935 0.377034 26.6667 0.83724 26.6667H2.49984V49.1667C2.49984 49.6269 2.87297 50 3.33317 50H46.6665C47.1267 50 47.4998 49.6269 47.4998 49.1667V26.6667H49.1665C49.6267 26.6667 49.9998 26.2935 49.9998 25.8333V22.5C49.9998 22.4927 49.9998 22.4858 49.9998 22.4776ZM11.6665 1.88843L24.5299 10.6877C24.8074 10.8773 25.172 10.8813 25.4539 10.6982L38.3332 2.32585V18.3333H11.6665V1.88843ZM14.2939 1.66667H36.2889L25.0112 8.99984L14.2939 1.66667ZM4.76709 13.3333H9.99984V19.1667C9.99984 19.6269 10.373 20 10.8332 20H39.1665C39.6267 20 39.9998 19.6269 39.9998 19.1667V13.3333H45.2322L48.0097 21.6667H1.98958L4.76709 13.3333ZM13.3332 42.5V48.3333H8.33317V35H13.3332V40.8333H12.4998C12.0396 40.8333 11.6665 41.2064 11.6665 41.6667C11.6665 42.1269 12.0396 42.5 12.4998 42.5H13.3332ZM14.9998 48.3333V42.5H15.8332C16.2934 42.5 16.6665 42.1269 16.6665 41.6667C16.6665 41.2064 16.2934 40.8333 15.8332 40.8333H14.9998V35H19.9998V48.3333H14.9998ZM45.8332 48.3333H21.6665V34.1667C21.6665 33.7065 21.2934 33.3333 20.8332 33.3333H7.49984C7.03963 33.3333 6.6665 33.7065 6.6665 34.1667V48.3333H4.1665V26.6667H45.8332V48.3333ZM48.3332 25H1.6665V23.3333H48.3332V25Z" fill="#E8AA31"/>
<path id="Vector_2" d="M23.3294 45.8334H43.3294C43.7896 45.8334 44.1628 45.4603 44.1628 45.0001V30.0001C44.1628 29.5399 43.7896 29.1667 43.3294 29.1667H23.3294C22.8692 29.1667 22.4961 29.5399 22.4961 30.0001V45.0001C22.4961 45.4603 22.8692 45.8334 23.3294 45.8334ZM24.1628 30.8334H42.4961V44.1668H24.1628V30.8334Z" fill="#E8AA31"/>
<path id="Vector_3" d="M39.1634 33.6788C38.838 33.3534 38.8379 32.8259 39.1633 32.5004C39.4887 32.1749 40.0165 32.1748 40.342 32.5004L40.8298 32.9883C41.1551 33.3138 41.1551 33.8413 40.8297 34.1667C40.5043 34.4921 39.9767 34.4921 39.6512 34.1667L39.1634 33.6788Z" fill="black"/>
<path id="Vector_4" d="M36.6634 34.5117C36.338 34.1863 36.338 33.6587 36.6634 33.3333C36.9888 33.0079 37.5164 33.0079 37.8418 33.3333L39.9967 35.4883C40.3221 35.8137 40.3221 36.3413 39.9967 36.6667C39.6713 36.9921 39.1438 36.9921 38.8184 36.6667L36.6634 34.5117Z" fill="black"/>
</g>
<defs>
<clipPath id="clip0_77_138">
<rect width="50" height="50" fill="white"/>
</clipPath>
</defs>
</svg>
