<svg width="50" height="50" viewBox="0 0 50 50" fill="none" xmlns="http://www.w3.org/2000/svg">
<g id="ecommerce 1">
<path id="Vector" d="M12.1772 20.1612C11.7318 20.1612 11.3707 19.7989 11.3707 19.3547H9.75781C9.75781 20.4046 10.4343 21.2917 11.3707 21.6256V23.387H12.9836V21.6256C13.9196 21.2917 14.5965 20.4046 14.5965 19.3547C14.5965 18.021 13.5109 16.9354 12.1772 16.9354C11.7318 16.9354 11.3707 16.5731 11.3707 16.1289C11.3707 15.6848 11.7318 15.3225 12.1772 15.3225C12.6221 15.3225 12.9836 15.6848 12.9836 16.1289H14.5965C14.5965 15.0791 13.9196 14.192 12.9836 13.858V12.0967H11.3707V13.858C10.4343 14.192 9.75781 15.0791 9.75781 16.1289C9.75781 17.4627 10.8431 18.5483 12.1772 18.5483C12.6221 18.5483 12.9836 18.9106 12.9836 19.3547C12.9836 19.7989 12.6221 20.1612 12.1772 20.1612Z" fill="black"/>
<path id="Vector_2" d="M42.8187 0H21.851C19.6273 0 17.8187 1.809 17.8187 4.03226V10.904C16.2838 9.6345 14.3161 8.87097 12.1736 8.87097C7.28208 8.87097 3.30259 12.8509 3.30259 17.7419C3.30259 19.8849 4.06612 21.8526 5.33565 23.3871H3.125L4.67175 31.1193C4.89659 32.2459 5.89442 33.0645 7.04424 33.0645H21.0445C21.4895 33.0645 21.851 33.4268 21.851 33.871C21.851 34.3151 21.4895 34.6774 21.0445 34.6774H6.5284C4.74932 34.6774 3.30259 36.1241 3.30259 37.9032C3.30259 39.6823 4.74932 41.129 6.5284 41.129C8.30708 41.129 9.7542 39.6823 9.7542 37.9032C9.7542 37.313 9.58291 36.7668 9.30569 36.2903H15.0418C14.7638 36.7668 14.5929 37.313 14.5929 37.9032C14.5929 39.6823 16.0396 41.129 17.8187 41.129V45.9677C17.8187 48.191 19.6273 50 21.851 50H42.8187C45.042 50 46.851 48.191 46.851 45.9677V4.03226C46.851 1.809 45.042 0 42.8187 0ZM21.851 1.6129H42.8187C44.1524 1.6129 45.2381 2.69854 45.2381 4.03226V4.83871H19.4316V4.03226C19.4316 2.69854 20.5169 1.6129 21.851 1.6129ZM12.1736 10.4839C16.1759 10.4839 19.4316 13.7404 19.4316 17.7419C19.4316 21.7435 16.1759 25 12.1736 25C8.17083 25 4.9155 21.7435 4.9155 17.7419C4.9155 13.7404 8.17083 10.4839 12.1736 10.4839ZM6.25315 30.8031L5.09269 25H7.08953C8.53075 26.0128 10.2823 26.6129 12.1743 26.6129C14.066 26.6129 15.8168 26.0128 17.2588 25H21.4379L20.3629 31.4516H7.04424C6.66031 31.4516 6.32836 31.1791 6.25315 30.8031ZM8.1413 37.9032C8.1413 38.7928 7.41794 39.5161 6.5284 39.5161C5.63886 39.5161 4.9155 38.7928 4.9155 37.9032C4.9155 37.0137 5.63886 36.2903 6.5284 36.2903C7.41794 36.2903 8.1413 37.0137 8.1413 37.9032ZM16.2058 37.9032C16.2058 37.0137 16.9292 36.2903 17.8187 36.2903C18.7083 36.2903 19.4316 37.0137 19.4316 37.9032C19.4316 38.7928 18.7083 39.5161 17.8187 39.5161C16.9292 39.5161 16.2058 38.7928 16.2058 37.9032ZM21.0445 37.9032C21.0445 37.313 20.8732 36.7668 20.596 36.2903H21.0445C22.3782 36.2903 23.4639 35.2047 23.4639 33.871C23.4639 32.8629 22.8437 31.9994 21.9652 31.6363L24.416 16.9355H29.109C30.4428 16.9355 31.5284 15.8498 31.5284 14.5161C31.5284 13.1824 30.4428 12.0968 29.109 12.0968H23.5871L21.7057 23.3871H19.0115C20.2806 21.8526 21.0445 19.8849 21.0445 17.7419C21.0445 15.8498 20.4444 14.0991 19.4316 12.6571V6.45161H45.2381V41.9355H19.4316V40.6805C20.3913 40.121 21.0445 39.092 21.0445 37.9032ZM24.6846 15.3226L24.9531 13.7097H29.109C29.554 13.7097 29.9155 14.0719 29.9155 14.5161C29.9155 14.9603 29.554 15.3226 29.109 15.3226H24.6846ZM42.8187 48.3871H21.851C20.5169 48.3871 19.4316 47.3015 19.4316 45.9677V43.5484H45.2381V45.9677C45.2381 47.3015 44.1524 48.3871 42.8187 48.3871Z" fill="#E8AA31"/>
<path id="Vector_3" d="M29.9141 45.9677C29.9141 45.5223 30.2751 45.1613 30.7205 45.1613H33.9463C34.3917 45.1613 34.7528 45.5223 34.7528 45.9677C34.7528 46.4131 34.3917 46.7742 33.9463 46.7742H30.7205C30.2751 46.7742 29.9141 46.4131 29.9141 45.9677Z" fill="black"/>
<path id="Vector_4" d="M43.6236 8.06445H21.043V10.5007C21.043 10.9461 21.404 11.3072 21.8494 11.3072C22.2948 11.3072 22.6559 10.9461 22.6559 10.5007V9.67736H42.0107V38.7096H23.4623C23.0169 38.7096 22.6559 39.0707 22.6559 39.5161C22.6559 39.9615 23.0169 40.3225 23.4623 40.3225H43.6236V8.06445Z" fill="#E8AA31"/>
</g>
</svg>
