<svg width="28" height="28" viewBox="0 0 28 28" fill="none" xmlns="http://www.w3.org/2000/svg">
<path d="M28 14C28 21.732 21.732 28 14 28C6.26801 28 0 21.732 0 14C0 6.26801 6.26801 0 14 0C21.732 0 28 6.26801 28 14Z" fill="white"/>
<path fill-rule="evenodd" clip-rule="evenodd" d="M14 27.5333C21.4743 27.5333 27.5333 21.4743 27.5333 14C27.5333 6.52575 21.4743 0.466667 14 0.466667C6.52575 0.466667 0.466667 6.52575 0.466667 14C0.466667 21.4743 6.52575 27.5333 14 27.5333ZM14 28C21.732 28 28 21.732 28 14C28 6.26801 21.732 0 14 0C6.26801 0 0 6.26801 0 14C0 21.732 6.26801 28 14 28Z" fill="#AAAAAA"/>
<path fill-rule="evenodd" clip-rule="evenodd" d="M16.4683 14.8933C16.6676 14.6939 16.9908 14.6939 17.1901 14.8933L19.2318 16.9349C19.4311 17.1343 19.4311 17.4574 19.2318 17.6568L17.1901 19.6984C16.9908 19.8978 16.6676 19.8978 16.4683 19.6984C16.2689 19.4991 16.2689 19.1759 16.4683 18.9766L18.149 17.2959L16.4683 15.6151C16.2689 15.4158 16.2689 15.0926 16.4683 14.8933Z" fill="#151515"/>
<path fill-rule="evenodd" clip-rule="evenodd" d="M8.15208 17.2958C8.15208 17.0139 8.38061 16.7854 8.6625 16.7854H18.8708C19.1527 16.7854 19.3813 17.0139 19.3813 17.2958C19.3813 17.5777 19.1527 17.8062 18.8708 17.8062H8.6625C8.38061 17.8062 8.15208 17.5777 8.15208 17.2958Z" fill="#151515"/>
<path fill-rule="evenodd" clip-rule="evenodd" d="M11.0651 8.76827C11.2644 8.9676 11.2644 9.29078 11.0651 9.49011L9.38434 11.1709L11.0651 12.8516C11.2644 13.0509 11.2644 13.3741 11.0651 13.5734C10.8658 13.7728 10.5426 13.7728 10.3432 13.5734L8.30158 11.5318C8.10225 11.3324 8.10225 11.0093 8.30158 10.8099L10.3432 8.76827C10.5426 8.56894 10.8658 8.56894 11.0651 8.76827Z" fill="#151515"/>
<path fill-rule="evenodd" clip-rule="evenodd" d="M8.15208 11.1708C8.15208 10.8889 8.38061 10.6604 8.6625 10.6604H18.8708C19.1527 10.6604 19.3813 10.8889 19.3813 11.1708C19.3813 11.4527 19.1527 11.6812 18.8708 11.6812H8.6625C8.38061 11.6812 8.15208 11.4527 8.15208 11.1708Z" fill="#151515"/>
</svg>
