<svg width="92" height="92" viewBox="0 0 92 92" fill="none" xmlns="http://www.w3.org/2000/svg">
<g filter="url(#filter0_d_23_751)">
<circle cx="6" cy="2" r="2" fill="#ABB2BF"/>
<circle cx="26" cy="2" r="2" fill="#ABB2BF"/>
<circle cx="46" cy="2" r="2" fill="#ABB2BF"/>
<circle cx="66" cy="2" r="2" fill="#ABB2BF"/>
<circle cx="86" cy="2" r="2" fill="#ABB2BF"/>
<circle cx="6" cy="22" r="2" fill="#ABB2BF"/>
<circle cx="26" cy="22" r="2" fill="#ABB2BF"/>
<circle cx="46" cy="22" r="2" fill="#ABB2BF"/>
<circle cx="66" cy="22" r="2" fill="#ABB2BF"/>
<circle cx="86" cy="22" r="2" fill="#ABB2BF"/>
<circle cx="6" cy="42" r="2" fill="#ABB2BF"/>
<circle cx="26" cy="42" r="2" fill="#ABB2BF"/>
<circle cx="46" cy="42" r="2" fill="#ABB2BF"/>
<circle cx="66" cy="42" r="2" fill="#ABB2BF"/>
<circle cx="86" cy="42" r="2" fill="#ABB2BF"/>
<circle cx="6" cy="62" r="2" fill="#ABB2BF"/>
<circle cx="26" cy="62" r="2" fill="#ABB2BF"/>
<circle cx="46" cy="62" r="2" fill="#ABB2BF"/>
<circle cx="66" cy="62" r="2" fill="#ABB2BF"/>
<circle cx="86" cy="62" r="2" fill="#ABB2BF"/>
<circle cx="6" cy="82" r="2" fill="#ABB2BF"/>
<circle cx="26" cy="82" r="2" fill="#ABB2BF"/>
<circle cx="46" cy="82" r="2" fill="#ABB2BF"/>
<circle cx="66" cy="82" r="2" fill="#ABB2BF"/>
<circle cx="86" cy="82" r="2" fill="#ABB2BF"/>
</g>
<defs>
<filter id="filter0_d_23_751" x="0" y="0" width="92" height="92" filterUnits="userSpaceOnUse" color-interpolation-filters="sRGB">
<feFlood flood-opacity="0" result="BackgroundImageFix"/>
<feColorMatrix in="SourceAlpha" type="matrix" values="0 0 0 0 0 0 0 0 0 0 0 0 0 0 0 0 0 0 127 0" result="hardAlpha"/>
<feOffset dy="4"/>
<feGaussianBlur stdDeviation="2"/>
<feComposite in2="hardAlpha" operator="out"/>
<feColorMatrix type="matrix" values="0 0 0 0 0 0 0 0 0 0 0 0 0 0 0 0 0 0 0.25 0"/>
<feBlend mode="normal" in2="BackgroundImageFix" result="effect1_dropShadow_23_751"/>
<feBlend mode="normal" in="SourceGraphic" in2="effect1_dropShadow_23_751" result="shape"/>
</filter>
</defs>
</svg>
