<svg width="177" height="225" viewBox="0 0 177 225" fill="none" xmlns="http://www.w3.org/2000/svg">
<g opacity="0.502697">
<path fill-rule="evenodd" clip-rule="evenodd" d="M131.072 99.0577L45.4026 50.3367L48.8865 44.2263L134.556 92.9473L131.072 99.0577Z" stroke="#010202"/>
<path d="M34.3845 1.8859L150.957 223.714" stroke="#010202"/>
<path fill-rule="evenodd" clip-rule="evenodd" d="M48.5858 114.175C24.294 113.327 5.28894 92.9734 6.1361 68.714C6.98326 44.4546 27.3617 25.4769 51.6536 26.3251C75.9455 27.1734 94.9505 47.5265 94.1033 71.7859C93.2562 96.0453 72.8777 115.023 48.5858 114.175Z" fill="#010202"/>
<path d="M84.6367 97.5197L47.2527 26.3766" stroke="#FEFEFE"/>
<path fill-rule="evenodd" clip-rule="evenodd" d="M99.8853 154.503L12.8085 200.654L9.5072 194.441L96.5839 148.292L99.8853 154.503Z" stroke="#010202"/>
<path fill-rule="evenodd" clip-rule="evenodd" d="M73.9731 143.781C68.9825 143.606 65.0771 139.424 65.2511 134.44C65.4252 129.456 69.6128 125.556 74.6035 125.731C79.5941 125.905 83.4995 130.087 83.3255 135.071C83.1514 140.055 78.9638 143.955 73.9731 143.781Z" stroke="#010202"/>
</g>
</svg>
