<svg width="137.358765" height="95.627808" viewBox="0 0 137.359 95.6278" fill="none" xmlns="http://www.w3.org/2000/svg" xmlns:xlink="http://www.w3.org/1999/xlink">
	<desc>
			Created with Pixso.
	</desc>
	<defs/>
	<path id="Vector" d="M0.511597 10.437C0.364563 10.5061 12.116 31.7628 36.0116 32.467C56.1898 33.0616 85.7585 31.3169 86.5116 48.8081C86.8342 56.297 79.1053 65.8534 69.2231 59.6489C60.3528 54.0798 58.9202 41.2241 62.8893 32.467C71.2737 13.9678 88.8975 16.3312 101.888 28.8732C116.28 42.7683 120.21 61.5326 119.178 80.2311" stroke="#FFFFFF" stroke-opacity="1.000000" stroke-width="1.000000" stroke-linejoin="round" stroke-linecap="round"/>
	<path id="Vector" d="M106.113 67.5221C113.682 70.3601 117.892 79.3804 119.145 86.6527C120.26 79.9152 124.883 73.8158 130.445 69.7111C132.138 68.4608 133.764 67.1292 135.863 66.5566" stroke="#FFFFFF" stroke-opacity="1.000000" stroke-width="1.000000" stroke-linejoin="round" stroke-linecap="round"/>
</svg>
