<svg width="180.612915" height="178.462158" viewBox="0 0 180.613 178.462" fill="none" xmlns="http://www.w3.org/2000/svg" xmlns:xlink="http://www.w3.org/1999/xlink">
	<desc>
			Created with Pixso.
	</desc>
	<defs/>
	<path id="N" d="M118.145 8.53336L119.451 9.00044L115.531 19.9572L114.247 19.498L111.356 8.75979L111.245 8.72032L108.168 17.3232L106.844 16.8495L110.763 5.89275L112.047 6.35193L114.953 17.1201L115.06 17.1583L118.145 8.53336Z" fill="#FFFFFF" fill-opacity="1.000000" fill-rule="evenodd"/>
	<path id="F" d="M129.736 26.7797L128.612 25.9342L135.608 16.6355L141.183 20.8299L140.432 21.8288L135.98 18.4798L133.616 21.6231L137.648 24.6573L136.897 25.6562L132.864 22.6219L129.736 26.7797Z" fill="#FFFFFF" fill-opacity="1.000000" fill-rule="evenodd"/>
	<path id="T" d="M154.49 35.0451L152.323 32.0953L153.33 31.3553L158.497 38.3882L157.489 39.1282L155.322 36.1784L146.951 42.3276L146.119 41.1943L154.49 35.0451Z" fill="#FFFFFF" fill-opacity="1.000000" fill-rule="evenodd"/>
	<path id=" " d="" fill="#FFFFFF" fill-opacity="1.000000" fill-rule="evenodd"/>
	<path id="M" d="M161.396 69.372L172.951 67.9937L173.15 69.6616L164.027 74.7349L164.043 74.8707L174.103 77.6518L174.302 79.3197L162.747 80.698L162.592 79.3908L171.369 78.3438L171.356 78.2313L162.147 75.6672L161.997 74.4028L170.343 69.7446L170.33 69.6321L161.552 70.6792L161.396 69.372Z" fill="#FFFFFF" fill-opacity="1.000000" fill-rule="evenodd"/>
	<path id="A" d="M166.038 98.684L163.103 96.7803L163.445 95.3439L173.775 102.197L173.438 103.61L161.128 105.072L161.47 103.635L164.949 103.259L166.038 98.684ZM171.828 102.432L167.152 99.403L166.268 103.116L171.807 102.519L171.828 102.432Z" fill="#FFFFFF" fill-opacity="1.000000" fill-rule="evenodd"/>
	<path id="R" d="M155.665 120.82L156.399 119.621L166.325 125.695L164.273 129.047C162.85 131.372 160.919 131.633 159.163 130.558C157.847 129.753 157.177 128.528 157.52 127.002L152.046 126.734L152.9 125.338L158.062 125.621C158.11 125.536 158.161 125.453 158.214 125.366L159.543 123.194L155.665 120.82ZM164.524 126.242L160.626 123.856L159.321 125.989C158.347 127.581 158.697 128.647 159.886 129.375C161.079 130.105 162.245 129.967 163.23 128.358L164.524 126.242Z" fill="#FFFFFF" fill-opacity="1.000000" fill-rule="evenodd"/>
	<path id="K" d="M143.333 138.572L144.403 137.659L151.955 146.512L150.885 147.425L147.138 143.033L147.034 143.121L146.801 150.908L145.401 152.102L145.712 144.937L137.85 143.249L139.148 142.141L145.735 143.633L145.782 141.443L143.333 138.572Z" fill="#FFFFFF" fill-opacity="1.000000" fill-rule="evenodd"/>
	<path id="E" d="M118.585 155.165L125.137 152.395L129.669 163.112L123.201 165.848L122.714 164.697L127.887 162.509L126.355 158.886L121.52 160.931L121.033 159.779L125.868 157.734L124.328 154.094L119.072 156.316L118.585 155.165Z" fill="#FFFFFF" fill-opacity="1.000000" fill-rule="evenodd"/>
	<path id="T" d="M104.27 170.206L107.909 169.812L108.044 171.055L99.3681 171.995L99.2335 170.752L102.872 170.358L101.754 160.031L103.152 159.88L104.27 170.206Z" fill="#FFFFFF" fill-opacity="1.000000" fill-rule="evenodd"/>
	<path id="P" d="M82.5438 160.662L83.9238 160.933L81.685 172.352L77.8287 171.596C75.1454 171.07 74.2583 169.24 74.6543 167.22C75.0496 165.204 76.5666 163.821 79.2269 164.343L81.7262 164.833L82.5438 160.662ZM80.5455 170.855L81.4857 166.06L79.0324 165.579C77.1962 165.219 76.2834 166.118 76.0151 167.487C75.7461 168.859 76.2561 170.014 78.1114 170.378L80.5455 170.855Z" fill="#FFFFFF" fill-opacity="1.000000" fill-rule="evenodd"/>
	<path id="L" d="M56.9228 152.631L62.9798 155.757L57.6421 166.098L56.3925 165.453L61.1569 156.223L56.3494 153.741L56.9228 152.631Z" fill="#FFFFFF" fill-opacity="1.000000" fill-rule="evenodd"/>
	<path id="A" d="M42.3218 147.379L45.4705 145.853L46.5223 146.889L35.3109 152.179L34.2758 151.159L39.3992 139.871L40.4509 140.907L38.9717 144.078L42.3218 147.379ZM36.118 150.391L41.13 147.96L38.4116 145.281L36.054 150.328L36.118 150.391Z" fill="#FFFFFF" fill-opacity="1.000000" fill-rule="evenodd"/>
	<path id="C" d="M16.6927 129.465C15.6352 127.374 16.0335 125.036 17.9679 123.573L18.6041 124.831C17.3177 125.862 17.173 127.489 17.871 128.87C18.8245 130.756 21.0342 131.499 23.7324 130.135C26.4271 128.772 27.1386 126.552 26.1851 124.666C25.4872 123.286 24.0911 122.438 22.498 122.862L21.8618 121.604C24.1874 120.914 26.3059 121.979 27.3634 124.07C28.7064 126.727 27.6313 129.691 24.3475 131.351C21.0602 133.013 18.0357 132.122 16.6927 129.465Z" fill="#FFFFFF" fill-opacity="1.000000" fill-rule="evenodd"/>
	<path id="E" d="M18.8201 100.361L20.0324 107.37L8.56589 109.353L7.36891 102.432L8.60062 102.219L9.55794 107.754L13.434 107.084L12.5392 101.911L13.771 101.698L14.6657 106.871L18.561 106.197L17.5884 100.574L18.8201 100.361Z" fill="#FFFFFF" fill-opacity="1.000000" fill-rule="evenodd"/>
	<path id=" " d="" fill="#FFFFFF" fill-opacity="1.000000" fill-rule="evenodd"/>
	<path id="Q" d="M8.74818 66.3475C9.65936 63.5139 12.5072 62.1605 16.014 63.2881C18.089 63.9554 19.4722 65.1921 20.06 66.6818L22.4428 65.8559L21.9693 67.3286L20.3606 67.8781C20.4395 68.5641 20.3644 69.2826 20.1312 70.0078C19.22 72.8415 16.3722 74.1948 12.8691 73.0684C9.36236 71.9408 7.83701 69.1812 8.74818 66.3475ZM19.0596 68.3256L16.3779 69.2769L16.8514 67.8043L18.7849 67.1253C18.32 66.0443 17.2664 65.1229 15.5967 64.586C12.7184 63.6605 10.652 64.7399 10.0051 66.7517C9.3582 68.7635 10.4081 70.845 13.2864 71.7706C16.161 72.6949 18.2274 71.6155 18.8743 69.6036C19.0118 69.176 19.0715 68.7479 19.0596 68.3256Z" fill="#FFFFFF" fill-opacity="1.000000" fill-rule="evenodd"/>
	<path id="E" d="M31.3077 45.9504L27.1907 51.7512L17.7011 45.0161L21.7662 39.2886L22.7855 40.012L19.5344 44.5928L22.7422 46.8694L25.7808 42.5882L26.8001 43.3116L23.7615 47.5929L26.9852 49.8809L30.2884 45.2269L31.3077 45.9504Z" fill="#FFFFFF" fill-opacity="1.000000" fill-rule="evenodd"/>
	<path id="E" d="M45.1799 31.3255L39.6277 35.772L32.3535 26.6891L37.8356 22.2987L38.617 23.2744L34.2325 26.7857L36.6915 29.8561L40.7893 26.5742L41.5707 27.5499L37.4729 30.8317L39.944 33.9173L44.3985 30.3498L45.1799 31.3255Z" fill="#FFFFFF" fill-opacity="1.000000" fill-rule="evenodd"/>
	<path id="B" d="M59.8423 22.1357L55.9365 23.6885L51.6373 12.8751L55.416 11.3728C57.6774 10.4737 59.246 11.3423 59.8752 12.9249C60.4294 14.3188 59.8493 15.2599 59.0211 15.8834L59.063 15.9887C60.0785 15.6564 61.6313 16.1152 62.3124 17.8285C62.959 19.4546 62.3977 21.1197 59.8423 22.1357ZM53.4058 13.5171L54.8332 17.1071L57.2652 16.1402C58.4449 15.6711 59.0812 14.5648 58.6266 13.4214C58.2499 12.474 57.3152 11.9628 55.8778 12.5343L53.4058 13.5171ZM55.2863 18.2469L56.7815 22.0074L59.3805 20.9741C61.0901 20.2944 61.4455 19.2745 61.0674 18.3235C60.6301 17.2236 59.3627 16.6262 57.9506 17.1876L55.2863 18.2469Z" fill="#FFFFFF" fill-opacity="1.000000" fill-rule="evenodd"/>
</svg>
