<svg width="207.902832" height="207.902832" viewBox="0 0 207.903 207.903" fill="none" xmlns="http://www.w3.org/2000/svg" xmlns:xlink="http://www.w3.org/1999/xlink">
	<desc>
			Created with Pixso.
	</desc>
	<defs>
		<filter id="filter_1_534_dd" x="3.951416" y="3.951416" width="200.000000" height="200.000000" filterUnits="userSpaceOnUse" color-interpolation-filters="sRGB">
			<feFlood flood-opacity="0" result="BackgroundImageFix"/>
			<feGaussianBlur in="BackgroundImage" stdDeviation="16.6667"/>
			<feComposite in2="SourceAlpha" operator="in" result="effect_backgroundBlur_1"/>
			<feBlend mode="normal" in="SourceGraphic" in2="effect_backgroundBlur_1" result="shape"/>
		</filter>
	</defs>
	<g filter="url(#filter_1_534_dd)">
		<circle id="Ellipse 7" cx="103.951416" cy="103.951416" r="100.000000" fill="#818698" fill-opacity="0.200000"/>
	</g>
	<path id="N" d="M131.481 26.5237L132.787 26.9908L128.867 37.9476L127.584 37.4884L124.692 26.7502L124.581 26.7107L121.504 35.3135L120.18 34.8399L124.099 23.8831L125.383 24.3423L128.289 35.1105L128.396 35.1486L131.481 26.5237Z" fill="#FFFFFF" fill-opacity="1.000000" fill-rule="evenodd"/>
	<path id="F" d="M143.072 44.7699L141.948 43.9245L148.944 34.6257L154.519 38.8201L153.768 39.819L149.317 36.47L146.952 39.6133L150.985 42.6476L150.233 43.6464L146.2 40.6122L143.072 44.7699Z" fill="#FFFFFF" fill-opacity="1.000000" fill-rule="evenodd"/>
	<path id="T" d="M167.826 53.0356L165.659 50.0858L166.667 49.3458L171.833 56.3787L170.825 57.1187L168.659 54.1689L160.288 60.3181L159.455 59.1848L167.826 53.0356Z" fill="#FFFFFF" fill-opacity="1.000000" fill-rule="evenodd"/>
	<path id=" " d="" fill="#FFFFFF" fill-opacity="1.000000" fill-rule="evenodd"/>
	<path id="M" d="M174.733 87.3623L186.287 85.9839L186.486 87.6518L177.363 92.7252L177.379 92.8609L187.44 95.642L187.638 97.3099L176.084 98.6882L175.928 97.3811L184.705 96.334L184.692 96.2215L175.484 93.6575L175.333 92.393L183.68 87.7348L183.666 87.6224L174.889 88.6694L174.733 87.3623Z" fill="#FFFFFF" fill-opacity="1.000000" fill-rule="evenodd"/>
	<path id="A" d="M179.375 116.674L176.439 114.771L176.781 113.334L187.111 120.187L186.775 121.601L174.465 123.062L174.807 121.626L178.285 121.25L179.375 116.674ZM185.164 120.422L180.489 117.393L179.604 121.106L185.143 120.51L185.164 120.422Z" fill="#FFFFFF" fill-opacity="1.000000" fill-rule="evenodd"/>
	<path id="R" d="M169.001 138.81L169.735 137.611L179.661 143.685L177.61 147.037C176.187 149.363 174.255 149.623 172.499 148.549C171.183 147.743 170.513 146.518 170.856 144.992L165.382 144.725L166.236 143.328L171.399 143.612C171.446 143.526 171.497 143.443 171.55 143.356L172.88 141.184L169.001 138.81ZM177.861 144.232L173.963 141.847L172.658 143.979C171.683 145.572 172.033 146.638 173.223 147.366C174.416 148.096 175.581 147.957 176.566 146.348L177.861 144.232Z" fill="#FFFFFF" fill-opacity="1.000000" fill-rule="evenodd"/>
	<path id="K" d="M156.669 156.562L157.739 155.649L165.291 164.503L164.221 165.416L160.474 161.023L160.37 161.112L160.138 168.899L158.738 170.093L159.049 162.927L151.186 161.239L152.485 160.131L159.072 161.624L159.118 159.433L156.669 156.562Z" fill="#FFFFFF" fill-opacity="1.000000" fill-rule="evenodd"/>
	<path id="E" d="M131.921 173.156L138.473 170.385L143.005 181.103L136.537 183.838L136.05 182.687L141.223 180.499L139.691 176.876L134.856 178.921L134.369 177.77L139.204 175.725L137.665 172.084L132.408 174.307L131.921 173.156Z" fill="#FFFFFF" fill-opacity="1.000000" fill-rule="evenodd"/>
	<path id="T" d="M117.607 188.197L121.246 187.803L121.38 189.045L112.704 189.985L112.57 188.742L116.209 188.348L115.09 178.022L116.488 177.87L117.607 188.197Z" fill="#FFFFFF" fill-opacity="1.000000" fill-rule="evenodd"/>
	<path id="P" d="M95.8801 178.653L97.2601 178.923L95.0213 190.343L91.165 189.587C88.4817 189.061 87.5946 187.231 87.9906 185.211C88.3859 183.194 89.9029 181.812 92.5632 182.333L95.0625 182.823L95.8801 178.653ZM93.8818 188.845L94.822 184.05L92.3687 183.569C90.5325 183.209 89.6197 184.109 89.3514 185.477C89.0824 186.85 89.5924 188.005 91.4477 188.368L93.8818 188.845Z" fill="#FFFFFF" fill-opacity="1.000000" fill-rule="evenodd"/>
	<path id="L" d="M70.2591 170.621L76.3161 173.748L70.9783 184.088L69.7288 183.443L74.4931 174.213L69.6857 171.732L70.2591 170.621Z" fill="#FFFFFF" fill-opacity="1.000000" fill-rule="evenodd"/>
	<path id="A" d="M55.658 165.369L58.8067 163.843L59.8585 164.88L48.6471 170.169L47.612 169.149L52.7354 157.861L53.7872 158.897L52.3079 162.068L55.658 165.369ZM49.4543 168.382L54.4663 165.95L51.7478 163.271L49.3903 168.319L49.4543 168.382Z" fill="#FFFFFF" fill-opacity="1.000000" fill-rule="evenodd"/>
	<path id="C" d="M30.0289 147.456C28.9714 145.364 29.3698 143.027 31.3041 141.563L31.9404 142.821C30.654 143.853 30.5093 145.48 31.2072 146.86C32.1607 148.746 34.3704 149.489 37.0686 148.125C39.7633 146.763 40.4749 144.542 39.5214 142.657C38.8234 141.276 37.4273 140.428 35.8343 140.853L35.198 139.594C37.5236 138.904 39.6422 139.969 40.6996 142.061C42.0427 144.717 40.9676 147.681 37.6837 149.342C34.3964 151.004 31.3719 150.112 30.0289 147.456Z" fill="#FFFFFF" fill-opacity="1.000000" fill-rule="evenodd"/>
	<path id="E" d="M32.1564 118.351L33.3687 125.36L21.9022 127.343L20.7052 120.423L21.9369 120.21L22.8942 125.745L26.7703 125.074L25.8755 119.901L27.1073 119.688L28.002 124.861L31.8973 124.187L30.9247 118.564L32.1564 118.351Z" fill="#FFFFFF" fill-opacity="1.000000" fill-rule="evenodd"/>
	<path id=" " d="" fill="#FFFFFF" fill-opacity="1.000000" fill-rule="evenodd"/>
	<path id="Q" d="M22.0845 84.3379C22.9957 81.5042 25.8435 80.1509 29.3503 81.2785C31.4253 81.9457 32.8085 83.1824 33.3963 84.6721L35.7791 83.8463L35.3056 85.3189L33.6969 85.8685C33.7758 86.5545 33.7007 87.273 33.4675 87.9982C32.5563 90.8318 29.7085 92.1852 26.2054 91.0588C22.6987 89.9311 21.1733 87.1716 22.0845 84.3379ZM32.3959 86.3159L29.7142 87.2672L30.1877 85.7946L32.1212 85.1156C31.6563 84.0347 30.6027 83.1132 28.933 82.5763C26.0547 81.6508 23.9883 82.7302 23.3414 84.7421C22.6945 86.7539 23.7444 88.8354 26.6227 89.7609C29.4973 90.6852 31.5637 89.6058 32.2106 87.594C32.3481 87.1663 32.4078 86.7383 32.3959 86.3159Z" fill="#FFFFFF" fill-opacity="1.000000" fill-rule="evenodd"/>
	<path id="E" d="M44.644 63.9408L40.527 69.7415L31.0374 63.0064L35.1025 57.2789L36.1218 58.0024L32.8707 62.5831L36.0785 64.8598L39.1171 60.5785L40.1364 61.302L37.0978 65.5833L40.3215 67.8713L43.6247 63.2173L44.644 63.9408Z" fill="#FFFFFF" fill-opacity="1.000000" fill-rule="evenodd"/>
	<path id="E" d="M58.5162 49.3157L52.964 53.7623L45.6898 44.6794L51.1718 40.289L51.9532 41.2646L47.5688 44.776L50.0277 47.8463L54.1255 44.5645L54.9069 45.5402L50.8091 48.822L53.2802 51.9075L57.7348 48.34L58.5162 49.3157Z" fill="#FFFFFF" fill-opacity="1.000000" fill-rule="evenodd"/>
	<path id="B" d="M73.1785 40.126L69.2728 41.6789L64.9735 30.8655L68.7522 29.3631C71.0136 28.464 72.5823 29.3327 73.2115 30.9153C73.7657 32.3092 73.1856 33.2502 72.3574 33.8738L72.3992 33.979C73.4147 33.6467 74.9675 34.1055 75.6487 35.8188C76.2952 37.445 75.734 39.11 73.1785 40.126ZM66.7421 31.5075L68.1694 35.0974L70.6014 34.1305C71.7811 33.6615 72.4174 32.5551 71.9628 31.4117C71.5861 30.4643 70.6515 29.9532 69.214 30.5247L66.7421 31.5075ZM68.6226 36.2372L70.1177 39.9978L72.7167 38.9645C74.4264 38.2847 74.7818 37.2648 74.4036 36.3138C73.9664 35.214 72.6989 34.6165 71.2869 35.1779L68.6226 36.2372Z" fill="#FFFFFF" fill-opacity="1.000000" fill-rule="evenodd"/>
</svg>
