<svg width="81" height="81" viewBox="0 0 81 81" fill="none" xmlns="http://www.w3.org/2000/svg">
<path d="M75.3297 36.6023L73.2321 28.212C73.8055 28.0902 74.2359 27.5814 74.2359 26.9719V25.6191C74.2359 22.6819 71.8462 20.2924 68.9092 20.2924H59.355V17.502C59.355 16.0567 58.1792 14.8809 56.7339 14.8809H8.03229C6.58695 14.8809 5.41118 16.0567 5.41118 17.502V40.5C5.41118 41.2004 5.97897 41.7683 6.67949 41.7683C7.37986 41.7683 7.94781 41.2005 7.94781 40.5V17.502C7.94781 17.4553 7.98562 17.4175 8.03229 17.4175H56.7337C56.7804 17.4175 56.8182 17.4553 56.8182 17.502V40.5003C56.8182 41.2007 57.386 41.7686 58.0865 41.7686C58.7869 41.7686 59.3548 41.2008 59.3548 40.5003V39.0626H74.3159C74.3172 39.0626 74.3181 39.0629 74.3192 39.0629C74.3205 39.0629 74.3216 39.0627 74.3227 39.0627C76.1637 39.064 77.7269 40.2723 78.2639 41.9374H74.3202C73.6198 41.9374 73.0519 42.5052 73.0519 43.2057V45.9113C73.0519 48.1026 74.8345 49.8852 77.0258 49.8852H78.4632V55.4655H75.147C74.0576 52.32 71.0674 50.0542 67.5561 50.0542C64.0447 50.0542 61.0544 52.32 59.9652 55.4655H59.3545V45.9112C59.3545 45.2108 58.7867 44.6429 58.0862 44.6429C57.3858 44.6429 56.8179 45.2106 56.8179 45.9112V55.4652H30.5043C29.4149 52.3197 26.4247 50.0539 22.9134 50.0539C19.402 50.0539 16.4117 52.3197 15.3224 55.4652H8.03229C7.98562 55.4652 7.94781 55.4274 7.94781 55.3807V52.5905H13.4436C14.144 52.5905 14.7119 52.0227 14.7119 51.3222C14.7119 50.6217 14.1441 50.0539 13.4436 50.0539H1.26831C0.567949 50.0539 0 50.6217 0 51.3222C0 52.0227 0.567791 52.5905 1.26831 52.5905H5.41134V55.3807C5.41134 56.8261 6.5871 58.0018 8.03245 58.0018H14.8833C14.883 58.03 14.8811 58.058 14.8811 58.0863C14.8811 62.5154 18.4845 66.1186 22.9134 66.1186C27.3422 66.1186 30.9456 62.5154 30.9456 58.0863C30.9456 58.0578 30.9437 58.03 30.9434 58.0018H59.526C59.5257 58.03 59.5238 58.058 59.5238 58.0863C59.5238 62.5154 63.1272 66.1186 67.5561 66.1186C71.985 66.1186 75.5883 62.5154 75.5883 58.0863C75.5883 58.0578 75.5864 58.03 75.5861 58.0018H79.7315C80.4319 58.0018 80.9998 57.434 80.9998 56.7335V43.2054C81 39.8654 78.5357 37.0904 75.3297 36.6023ZM59.355 22.8289H68.9092C70.4477 22.8289 71.6994 24.0806 71.6994 25.6191V25.7036H59.355V22.8289ZM59.355 36.5261V28.24H70.6246L72.6961 36.5261H59.355ZM22.9134 63.5825C19.883 63.5825 17.4175 61.1172 17.4175 58.0866C17.4175 55.0561 19.883 52.5908 22.9134 52.5908C25.9437 52.5908 28.4092 55.0561 28.4092 58.0866C28.4092 61.1172 25.9437 63.5825 22.9134 63.5825ZM67.5564 63.5825C64.526 63.5825 62.0606 61.1172 62.0606 58.0866C62.0606 55.0561 64.526 52.5908 67.5564 52.5908C70.5868 52.5908 73.0522 55.0561 73.0522 58.0866C73.0522 61.1172 70.5868 63.5825 67.5564 63.5825ZM78.4635 47.3486H77.0261C76.2335 47.3486 75.5887 46.7038 75.5887 45.9112V44.4737H78.4634V47.3486H78.4635Z" fill="#E8AA31"/>
<path d="M22.9141 55.4655C21.4687 55.4655 20.293 56.6413 20.293 58.0867C20.293 59.532 21.4687 60.7078 22.9141 60.7078C24.3594 60.7078 25.5352 59.532 25.5352 58.0867C25.5352 56.6413 24.3594 55.4655 22.9141 55.4655Z" fill="#E8AA31"/>
<path d="M67.5586 55.4655C66.1133 55.4655 64.9375 56.6413 64.9375 58.0867C64.9375 59.532 66.1133 60.7078 67.5586 60.7078C69.004 60.7078 70.1797 59.532 70.1797 58.0867C70.1797 56.6413 69.004 55.4655 67.5586 55.4655Z" fill="#E8AA31"/>
<path d="M52.6765 50.0544H33.7371C33.0367 50.0544 32.4688 50.6221 32.4688 51.3227C32.4688 52.0232 33.0365 52.591 33.7371 52.591H52.6765C53.3769 52.591 53.9448 52.0232 53.9448 51.3227C53.9448 50.6221 53.377 50.0544 52.6765 50.0544Z" fill="#E8AA31"/>
<path d="M20.2092 44.643H3.97535C3.27498 44.643 2.70703 45.2108 2.70703 45.9113C2.70703 46.6118 3.27482 47.1796 3.97535 47.1796H20.2092C20.9096 47.1796 21.4775 46.6118 21.4775 45.9113C21.4775 45.2108 20.9096 44.643 20.2092 44.643Z" fill="#E8AA31"/>
<path d="M44.1006 27.4277C43.6054 26.9325 42.8022 26.9325 42.307 27.4278L31.0284 38.7063L25.1611 32.839C24.6658 32.3437 23.8628 32.3437 23.3676 32.839C22.8723 33.3343 22.8723 34.1372 23.3676 34.6326L30.1317 41.3967C30.3793 41.6444 30.704 41.7681 31.0284 41.7681C31.3529 41.7681 31.6777 41.6444 31.9251 41.3967L44.1004 29.2214C44.5958 28.7259 44.5958 27.923 44.1006 27.4277Z" fill="black"/>
</svg>
