<svg width="81" height="81" viewBox="0 0 81 81" fill="none" xmlns="http://www.w3.org/2000/svg">
<g clip-path="url(#clip0_77_81)">
<path d="M80.8192 55.6537C80.2574 53.6061 78.5405 52.0824 76.4405 51.7674V20.9878H79.1226C79.8632 20.9878 80.4637 20.3874 80.4637 19.6468V6.23614C80.4637 5.49489 79.8632 4.89508 79.1226 4.89508H20.1159C19.3753 4.89508 18.7749 5.49489 18.7749 6.23614V19.6468C18.7749 20.3874 19.3753 20.9878 20.1159 20.9878H22.798V47.809H21.457C18.1286 47.8012 14.8682 48.7553 12.0696 50.5567V43.7859C12.0696 43.0446 11.4691 42.4448 10.7285 42.4448H1.34106C0.600465 42.4448 0 43.0446 0 43.7859V74.6303C0 75.3709 0.600465 75.9713 1.34106 75.9713H10.7285C11.4691 75.9713 12.0696 75.3709 12.0696 74.6303V67.8601C14.8689 69.6602 18.1286 70.6143 21.457 70.6071H43.4771C45.0028 70.6045 46.5213 70.4041 47.9953 70.0112L77.0305 62.2333C79.8874 61.4547 81.5801 58.5159 80.8192 55.6537ZM21.457 7.5772H77.7816V18.3057H21.457V7.5772ZM25.4802 20.9878H73.7584V51.9979L58.1941 56.1717C57.553 54.6434 56.2453 53.4955 54.6469 53.0574L36.5773 48.2111C35.5597 47.9433 34.512 47.8077 33.4597 47.809H25.4802V20.9878ZM9.38743 73.2892H2.68212V45.1269H9.38743V73.2892ZM76.3344 59.6422L47.3045 67.4201C46.0558 67.7534 44.7697 67.923 43.4771 67.925H21.457C18.2641 67.9322 15.1557 66.8963 12.6058 64.9744L12.0696 64.5723V53.8438L12.6058 53.4411C15.1557 51.5192 18.2641 50.4827 21.457 50.4912H33.4597C34.2789 50.4905 35.0955 50.5966 35.8885 50.8061L53.9522 55.6485C55.0195 55.9425 55.8007 56.8573 55.9225 57.958C55.9369 58.013 55.9546 58.0674 55.9762 58.1204C55.9605 58.178 55.9487 58.2363 55.9409 58.2959C55.9422 58.514 55.9127 58.7314 55.8525 58.9409C55.5368 60.1098 54.478 60.9224 53.2672 60.9243C53.0309 60.9263 52.7964 60.8962 52.5686 60.8359L41.1695 57.7793C40.702 57.6404 40.1958 57.7662 39.8475 58.108C39.4998 58.4498 39.3642 58.9533 39.4945 59.4235C39.6248 59.893 40 60.2558 40.4748 60.3691L51.8738 63.427C52.3289 63.5469 52.7984 63.6071 53.2699 63.6065C55.6809 63.6052 57.794 61.9923 58.4311 59.6664C58.5058 59.3973 58.5562 59.1223 58.583 58.8446L74.9318 54.4607C75.0484 54.4312 75.1747 54.4011 75.2939 54.3814C76.6291 54.2092 77.8844 55.0533 78.2295 56.3537C78.2897 56.5803 78.3198 56.8141 78.3179 57.0485C78.3198 58.2625 77.5065 59.3259 76.3344 59.6422Z" fill="#E8AA31"/>
<path d="M42.9153 26.352H56.3259C57.0665 26.352 57.667 25.7516 57.667 25.011C57.667 24.2697 57.0665 23.6699 56.3259 23.6699H42.9153C42.1747 23.6699 41.5742 24.2697 41.5742 25.011C41.5742 25.7516 42.1747 26.352 42.9153 26.352Z" fill="black"/>
</g>
<defs>
<clipPath id="clip0_77_81">
<rect width="81" height="81" fill="white"/>
</clipPath>
</defs>
</svg>
