<svg width="81" height="81" viewBox="0 0 81 81" fill="none" xmlns="http://www.w3.org/2000/svg">
<path d="M41.5578 44.2063C41.4079 44.1739 41.2542 44.168 41.1024 44.1907C39.5811 44.0136 38.4334 42.7265 38.4308 41.1955C38.4308 40.4617 37.8359 39.8668 37.1022 39.8668C36.3685 39.8668 35.7736 40.4617 35.7736 41.1955C35.7775 43.7522 37.4876 45.9916 39.9528 46.6683V47.9969C39.9528 48.7306 40.5477 49.3256 41.2814 49.3256C42.0152 49.3256 42.6101 48.7306 42.6101 47.9969V46.7487C45.4555 46.1532 47.3894 43.503 47.0903 40.6116C46.7906 37.7201 44.3545 35.5228 41.4475 35.5222C39.7815 35.5222 38.4308 34.1715 38.4308 32.5055C38.4308 30.8395 39.7815 29.4888 41.4475 29.4888C43.1135 29.4888 44.4642 30.8395 44.4642 32.5055C44.4642 33.2392 45.0591 33.8341 45.7928 33.8341C46.5265 33.8341 47.1214 33.2392 47.1214 32.5055C47.1176 29.821 45.2368 27.5056 42.6101 26.9516V25.7423C42.6101 25.0086 42.0152 24.4137 41.2814 24.4137C40.5477 24.4137 39.9528 25.0086 39.9528 25.7423V27.0327C37.2112 27.7813 35.4466 30.4431 35.8242 33.26C36.2017 36.0768 38.6054 38.1794 41.4475 38.1788C43.0914 38.1788 44.4324 39.4951 44.4622 41.1384C44.4927 42.7816 43.2004 44.1466 41.5578 44.2063Z" fill="black"/>
<path d="M22.1797 36.9526C22.1797 47.5934 30.8054 56.2191 41.4462 56.2191C52.0869 56.2191 60.7127 47.5934 60.7127 36.9526C60.7127 26.3119 52.0869 17.6861 41.4462 17.6861C30.8106 17.6978 22.192 26.3171 22.1797 36.9526ZM41.4462 20.3434C50.6195 20.3434 58.0554 27.7793 58.0554 36.9526C58.0554 46.1259 50.6195 53.5618 41.4462 53.5618C32.2729 53.5618 24.837 46.1259 24.837 36.9526C24.8473 27.7839 32.2774 20.3538 41.4462 20.3434Z" fill="#E8AA31"/>
<path d="M67.2612 59.4946L56.8533 64.4121C55.4164 61.7393 52.6598 60.0383 49.6263 59.9526L40.0183 59.6886C38.497 59.6451 37.0043 59.2598 35.6516 58.5611L34.674 58.0544C29.6682 55.4451 23.7017 55.4516 18.7012 58.0713L18.7621 55.8565C18.7823 55.1227 18.2042 54.5116 17.4705 54.4915L6.93484 54.2015C6.20111 54.1814 5.59064 54.7594 5.57052 55.4932L4.9341 78.6132C4.91399 79.3469 5.49203 79.9581 6.22576 79.9782L16.7614 80.2682H16.7977C17.5179 80.2682 18.1069 79.6953 18.1264 78.9759L18.1569 77.8697L20.8939 76.4042C21.9683 75.8262 23.2242 75.6887 24.3978 76.0208L40.7424 80.6081C40.7709 80.6165 40.7994 80.623 40.8286 80.6295C42.01 80.8767 43.2141 81.0006 44.4207 80.9999C46.9768 81.0012 49.503 80.4505 51.8262 79.3839C51.8833 79.358 51.9384 79.3275 51.991 79.2931L75.6891 63.9645C76.2794 63.5824 76.4702 62.8071 76.1244 62.1947C74.365 59.0729 70.4628 57.8838 67.2612 59.4946ZM7.62705 77.3585L8.19017 56.8944L16.0692 57.1111L15.5061 77.5759L7.62705 77.3585ZM50.6293 77.0108C47.743 78.3135 44.5194 78.6729 41.417 78.0391L25.1166 73.4635C23.282 72.9451 21.3182 73.1598 19.6399 74.0622L18.2412 74.8115L18.6155 61.2054C23.0478 58.2575 28.7321 57.9545 33.4524 60.4139L34.43 60.9206C36.1388 61.8029 38.0235 62.2894 39.9457 62.3452L49.5543 62.6093C52.2531 62.6871 54.5451 64.6087 55.0926 67.253L40.7806 66.8579C40.0469 66.8378 39.4364 67.4165 39.4157 68.1496C39.3955 68.8833 39.9742 69.4944 40.7073 69.5145L56.5017 69.9492H56.5387C57.2582 69.9485 57.8466 69.3757 57.866 68.6569C57.8822 68.0795 57.8394 67.5015 57.7376 66.9332L68.4127 61.8892C68.4231 61.8846 68.4335 61.8794 68.4439 61.8742C69.958 61.1081 71.7888 61.3643 73.0344 62.5171L50.6293 77.0108Z" fill="#E8AA31"/>
<path d="M42.7745 13.9507V1.32863C42.7745 0.594901 42.1796 0 41.4458 0C40.7121 0 40.1172 0.594901 40.1172 1.32863V13.9507C40.1172 14.6844 40.7121 15.2793 41.4458 15.2793C42.1796 15.2793 42.7745 14.6844 42.7745 13.9507Z" fill="black"/>
<path d="M52.7432 13.9506V7.97179C52.7432 7.23806 52.1483 6.64316 51.4146 6.64316C50.6808 6.64316 50.0859 7.23806 50.0859 7.97179V13.9506C50.0859 14.6844 50.6808 15.2793 51.4146 15.2793C52.1483 15.2793 52.7432 14.6844 52.7432 13.9506Z" fill="black"/>
<path d="M32.8096 13.9506V7.97179C32.8096 7.23806 32.2147 6.64316 31.481 6.64316C30.7472 6.64316 30.1523 7.23806 30.1523 7.97179V13.9506C30.1523 14.6844 30.7472 15.2793 31.481 15.2793C32.2147 15.2793 32.8096 14.6844 32.8096 13.9506Z" fill="black"/>
</svg>
