<svg width="81" height="81" viewBox="0 0 81 81" fill="none" xmlns="http://www.w3.org/2000/svg">
<path d="M72.4583 3.93524H20.0809C15.5353 3.93524 11.837 7.59889 11.837 12.0875L11.4995 58.2085H1.27779C0.553391 58.2085 0 58.849 0 59.5734V65.9208C0 71.8627 4.75506 76.7221 10.4939 76.9886V77.0648H54.6012V76.979C54.9291 76.9924 55.1277 77.0648 55.3531 77.0648H55.3845C61.5051 77.0289 66.4389 72.0401 66.4069 65.9195V25.579H79.7222C80.4466 25.579 81 24.9231 81 24.1993V12.5531C81.0083 7.81987 77.1916 3.96919 72.4583 3.93524V3.93524ZM11.0678 74.4413H11.0588C6.39281 74.4413 2.62348 70.5849 2.62348 65.9195V60.832H44.2712V65.8977C44.261 68.8504 45.4273 71.6853 47.5122 73.7758C47.7338 73.9987 47.9656 74.1134 48.2026 74.4413H11.0678ZM63.7834 65.9182C63.7834 70.5849 60.0506 74.4413 55.3826 74.4413H55.3557C50.6647 74.4074 46.8838 70.5894 46.8947 65.8983V59.5734C46.8986 58.8388 46.3176 58.2341 45.583 58.2085H14.123L14.4605 12.0965C14.4605 9.04578 16.9815 6.55872 20.0809 6.55872H66.2653C64.7704 8.1984 63.7834 10.273 63.7834 12.5884V65.9182ZM78.3765 12.5762V22.9555H66.4069V12.5858C66.4069 9.30262 69.1379 6.55872 72.4199 6.55872H72.4564C75.7466 6.59139 78.3919 9.27572 78.3765 12.5666V12.5762Z" fill="#E8AA31"/>
<path d="M30.8026 36.2228L37.5656 40.8465C38.007 41.1508 38.5904 41.1508 39.0317 40.8465L45.7743 36.224C48.1166 34.626 49.8466 31.2852 49.8466 28.4522V19.0971C49.8607 18.6026 49.5878 18.144 49.1471 17.9192L38.8498 12.8542C38.4886 12.6748 38.0646 12.6748 37.7034 12.8542L27.4253 17.9051C26.9846 18.13 26.7124 18.5886 26.7271 19.083V28.4522C26.7271 31.2852 28.461 34.626 30.8026 36.2228ZM29.3506 19.9016L38.2868 15.4924L47.2231 19.9137V28.4522C47.2231 30.4282 45.928 32.9415 44.2941 34.0553L38.2715 38.1744L32.2726 34.056C30.6387 32.9408 29.3506 30.4282 29.3506 28.4522V19.9016Z" fill="#E8AA31"/>
<path d="M36.0684 30.4327C36.3131 30.6824 36.6474 30.824 36.9972 30.8259H37.0004C37.3488 30.8246 37.6825 30.685 37.9278 30.4378L43.1459 25.2177C43.659 24.7053 43.659 23.8739 43.1466 23.3615C42.6348 22.8485 41.8035 22.8485 41.2911 23.3609L37.0048 27.6465L35.2915 25.9165C34.781 25.4015 33.9503 25.3977 33.4353 25.9082C32.9204 26.4186 32.9172 27.2494 33.427 27.7643L36.0684 30.4327Z" fill="black"/>
<path d="M54.6021 44.5992H23.1203C22.3959 44.5992 21.8086 45.1865 21.8086 45.9109C21.8086 46.6353 22.3959 47.2227 23.1203 47.2227H54.6021C54.6074 45.7557 54.6021 46.7471 54.6021 46.0227C54.6021 45.2983 54.6142 46.6363 54.6021 44.5992Z" fill="#E8AA31"/>
<path d="M54.6021 50.666H23.1203C22.3959 50.666 21.8086 51.2533 21.8086 51.9777C21.8086 52.7021 22.3959 53.2895 23.1203 53.2895H54.6021C55.3265 53.2895 55.9139 52.7021 55.9139 51.9777C55.9139 51.2533 55.3265 50.666 54.6021 50.666Z" fill="#E8AA31"/>
</svg>
