<svg width="100" height="127" viewBox="0 0 100 127" fill="none" xmlns="http://www.w3.org/2000/svg">
<path d="M66.1196 67.8047C77.1316 66.6608 88.5295 65.4814 93.1729 74.4528C102.545 92.5525 84.1635 117.458 83.3768 118.513L80.7153 116.516C80.8975 116.271 98.6363 92.223 90.2246 75.9806C86.624 68.9904 76.8235 70.0098 66.4639 71.1081C53.9094 72.4053 39.6819 73.8828 37.5368 58.6545C37.0989 55.5769 37.4154 52.4391 38.4591 49.5109C30.3349 45.2205 21.2244 38.2173 11.5516 27.123L4.86454 37.5556C5.3707 29.4882 3.36533 18.6363 0.88243 10.563C8.02819 15.0611 17.9918 19.809 25.9135 21.4144L14.2092 25.1286C23.4858 35.7133 32.1308 42.3715 39.8178 46.4584C41.9142 42.807 44.7989 39.6692 48.2616 37.2738C58.7352 29.7502 74.8434 26.5843 82.7026 30.5277C84.1072 31.1307 85.3072 32.1275 86.1575 33.3978C87.0079 34.6681 87.4721 36.1574 87.4943 37.6859C87.626 44.1149 82.1007 50.6045 73.7229 53.7041C69.2404 55.362 57.4127 58.3329 41.44 50.9229C40.6819 53.251 40.4699 55.7223 40.8203 58.1454C42.3971 69.4172 51.4375 69.3037 66.1196 67.8047ZM72.5581 50.6227C79.5006 48.0091 84.2798 42.7249 84.1835 37.7857C84.1651 36.8622 83.8732 35.9648 83.3448 35.2071C82.8164 34.4494 82.0752 33.8654 81.215 33.5289C75.0907 30.4681 60.5284 32.5883 50.209 40.0041C47.1886 42.0921 44.6535 44.8065 42.7763 47.9623C57.6116 54.8187 68.4399 52.1583 72.5554 50.6007L72.5581 50.6227Z" fill="url(#paint0_linear_28_9628)"/>
<defs>
<linearGradient id="paint0_linear_28_9628" x1="-13.9701" y1="13.4965" x2="89.6063" y2="105.176" gradientUnits="userSpaceOnUse">
<stop stop-color="#19562A"/>
<stop offset="1" stop-color="#30AC53" stop-opacity="0"/>
</linearGradient>
</defs>
</svg>
