<svg width="115" height="109" viewBox="0 0 115 109" fill="none" xmlns="http://www.w3.org/2000/svg">
<path d="M77.9803 84.8733L71.2026 92.3889C69.0536 87.3044 67.5132 81.9837 66.6132 76.5375C79.9684 73.7153 92.3124 67.2744 97.7107 59.4258C102.415 52.519 100.988 45.2803 93.5232 39.7065C87.7503 35.3963 80.5727 35.4624 74.4886 40.2278C66.9471 46.0756 61.7772 58.3093 63.5785 74.2598C52.5074 76.2415 41.0047 75.5234 33.0417 70.8519C9.90513 57.2621 16.9823 36.0923 17.306 35.1666L16.0115 34.7146L14.7224 34.2551C14.6365 34.4857 6.15616 56.7879 29.6845 72.016C40.9556 79.3062 52.2856 79.0701 63.9283 77.0584C64.8834 82.7869 66.5203 88.3806 68.804 93.7204L58.6348 95.1778C64.8775 97.555 72.3456 102.715 77.5661 107.406C76.632 100.485 76.5023 91.3982 77.9803 84.8733ZM66.2421 73.7686C64.6093 58.9827 69.3153 47.7767 76.1589 42.4191C78.3824 40.6123 81.1425 39.5944 84.0066 39.5247C86.8708 39.4551 89.6771 40.3377 91.9857 42.0343C98.1818 46.8373 99.2799 52.2697 95.4255 57.9074C90.5198 65.097 78.8397 71.0796 66.2421 73.7686Z" fill="url(#paint0_linear_39_3289)"/>
<defs>
<linearGradient id="paint0_linear_39_3289" x1="82.4692" y1="106.5" x2="21.4692" y2="43.5" gradientUnits="userSpaceOnUse">
<stop stop-color="#275D36"/>
<stop offset="1" stop-color="#275D36" stop-opacity="0"/>
</linearGradient>
</defs>
</svg>
