<?xml version="1.0" encoding="UTF-8"?><svg id="_Слой_2" xmlns="http://www.w3.org/2000/svg" width="196.73" height="53.04" viewBox="0 0 196.73 53.04"><g id="_Слой_1-2"><path d="M146.36,5.16c.65-1.17,1.92-2.55,3.29-2.95,3.46-.99,6.48.89,8.31,1.89,3.49,1.89,9.31,4.72,12.72,5.93,1.59.57,4.99,1.5,7.21,1.64,1.99.13,5.29-1.91,5.51-1.76.26.17-1.19,3.47-6.7,3.74-3.79.19-8.68-1.87-11.49-2.8-2.49-.82-7.57-2.56-10.15-2.57-1.56,0-2.88,1.09-3.6,2.99-.48,1.25-2.19,3.49-4.79,2.4-2.04-.86-1.66-6.07-.3-8.52Z" style="fill:#5ff101; stroke-width:0px;"/><path d="M164.89,31.86c1.03-.07,1.95-.21,2.87-.18,1.87.06,3.63.51,5.09,1.77,1.03.89,1.81,1.97,2.38,3.19.6,1.28,1.1,2.6,1.65,3.91.62,1.49,1.17,3.01,2.11,4.36.41.59.91,1.06,1.63,1.27.43.13.81.01,1.17-.16.88-.43,1.52-1.14,2.02-1.94.68-1.11,1.33-2.25,1.91-3.42.48-.98.85-2.03,1.25-3.05.35-.91.72-1.82,1.01-2.75.59-1.92,1.18-3.84,1.69-5.78.36-1.37.65-2.76.86-4.15.28-1.85.49-3.71.64-5.57.13-1.64-.02-3.28-.28-4.91-.15-.93-.37-1.82-.71-2.68-.7-1.77-1.79-3.21-3.59-4.05-1.46-.69-3.01-.8-4.58-.7-1.26.08-2.51.26-3.76.37-1.24.11-2.49.28-3.73.28-1.48,0-2.98-.06-4.44-.29-1.16-.19-2.3-.62-3.41-1.03-1.17-.43-2.17-1.16-3.03-2.04-.87-.89-1.53-1.93-1.98-3.09-.14-.37-.28-.74-.42-1.11.03-.02.06-.05.08-.07.33.27.67.54.99.82.87.79,1.72,1.59,2.74,2.19.93.55,1.92.95,2.98,1.2,1.8.43,3.63.53,5.46.4,1.46-.1,2.91-.29,4.35-.52,2.34-.37,4.67-.82,7.01-1.21,1.9-.32,3.82-.45,5.74-.24,1.53.17,2.92.71,3.9,1.95,2.21,2.87,3.15,10.57,1.18,19.99-.36,1.99-3.63,15.21-7.89,21.43-.75,1.37-2.59,3.86-3.68,4.99-.56.57-1.17,1.08-1.92,1.4-1.13.48-2.59.11-3.44-.78-1.16-1.21-1.9-2.66-2.47-4.2-.61-1.66-1.16-3.34-1.71-5.02-.38-1.16-.69-2.36-1.09-3.51-.51-1.46-1.03-2.94-1.94-4.22-.56-.78-1.32-1.34-2.21-1.74-.96-.43-1.97-.62-2.99-.81-.44-.08-.87-.17-1.43-.27Z" style="fill:#5e6d6e; stroke-width:0px;"/><path d="M151.77,40.07c.66-.77,2.47-.66,3.37.6.67.94,1.62,3.1,2.16,4.11.49.93,1.55,2.81,3.01,2.84,1.28.03,2.38-3,2.88-4.22.71-1.71,1.82-4.1,2.8-5.37,1.36-1.76,4.05-2.21,4.2-1.86.09.2-1.49.56-2.48,1.78-1.38,1.69-2.56,5.68-3.11,7.9-.28,1.13-1.41,7.18-4.29,7.18-1.57,0-2.96-1.48-3.75-2.23-1.37-1.29-3.18-4.68-3.87-6.43-.41-1.03-1.78-3.3-.92-4.31Z" style="fill:#5ff103; stroke-width:0px;"/><path d="M18.95,25.87c-.54,1.32-1.3,2.41-2.28,3.28-.99.87-2.17,1.51-3.55,1.94-1.38.43-2.92.64-4.61.64-.62,0-1.23-.02-1.85-.05-.62-.04-1.22-.08-1.82-.14-.7-.05-1.41-.1-2.13-.15-.71-.04-1.42-.05-2.12-.01-.18,0-.28-.07-.3-.22-.03-.14.05-.23.22-.27.35-.07.63-.17.84-.3.21-.13.37-.28.49-.47.11-.19.19-.42.22-.71.04-.28.05-.62.05-1.02v-15c0-.27-.04-.49-.12-.65-.08-.16-.18-.29-.3-.38-.12-.09-.26-.15-.4-.19-.14-.04-.27-.06-.4-.08-.21-.04-.4-.08-.55-.12-.16-.04-.26-.14-.32-.28-.05-.09-.05-.17.01-.24.06-.07.15-.11.25-.11.32,0,.63,0,.95.03.32.02.62.04.92.05.39.04.76.06,1.12.08.36.02.73.03,1.12.03.48,0,.94-.01,1.4-.04.46-.03.93-.06,1.43-.09.46-.04.93-.06,1.43-.07.49,0,.96-.01,1.4-.01.62,0,1.27.1,1.97.3.69.2,1.39.47,2.09.83.7.35,1.37.77,2.02,1.25.65.48,1.23,1.01,1.73,1.59.5.58.92,1.19,1.25,1.84.33.65.53,1.31.58,1.98.04.34.05.71.05,1.08v1c0,1.81-.27,3.37-.81,4.69ZM16.31,18.22c-.47-1.18-1.12-2.17-1.95-3-.84-.82-1.84-1.46-3.01-1.91-1.17-.45-2.45-.68-3.84-.68-.46,0-.9.03-1.33.08-.43.05-.86.15-1.28.3v14.35c0,.14,0,.33.01.57,0,.24.03.47.07.69.04.23.08.44.15.64.06.2.14.33.22.41.4.29.9.48,1.49.58.59.1,1.12.15,1.6.15,1.27,0,2.43-.17,3.48-.52,1.06-.34,1.96-.85,2.71-1.53.75-.68,1.33-1.53,1.76-2.56.42-1.03.63-2.23.63-3.61,0-1.46-.23-2.78-.7-3.96Z" style="fill:#5e6d6e; stroke-width:0px;"/><path d="M30.22,29.71c-.05.34-.09.68-.14,1.03l-.06.52c-.03.1-.1.15-.21.15l-.38.11h-2.67c-.32,0-.65,0-.97.01-.32,0-.65.01-.97.01-.59,0-1.17,0-1.75-.02-.58-.01-1.12-.05-1.62-.11-.14,0-.21-.06-.2-.18,0-.12.08-.18.22-.18.27-.01.48-.07.64-.17.16-.1.28-.24.37-.41.08-.17.14-.37.17-.59.03-.22.04-.46.04-.7v-12.05c0-.19-.02-.34-.06-.45-.04-.12-.1-.21-.18-.27-.08-.06-.16-.11-.25-.14-.09-.03-.19-.06-.28-.09-.15-.03-.3-.07-.44-.13-.14-.06-.28-.14-.42-.24-.11-.06-.15-.13-.11-.22s.12-.13.23-.13h8.08c.08,0,.21-.05.38-.15.1-.03.19-.03.26.01.08.04.11.09.09.16-.04.4-.1.81-.18,1.21-.08.4-.16.79-.24,1.17-.01.06-.03.11-.04.15-.01.04-.03.1-.04.17-.03.12-.11.17-.25.17s-.22-.06-.23-.17c-.06-.66-.27-1.1-.64-1.31-.37-.21-.85-.31-1.42-.31h-.36c-.13,0-.25,0-.38.02-.14.01-.29.02-.44.02h-.44c-.11,0-.19,0-.22.02-.04.01-.11,0-.22-.02v5.77h3.09c.07,0,.18-.03.32-.08.14-.05.28-.11.42-.18.15-.07.29-.13.41-.18.12-.05.21-.08.28-.1.08-.01.16,0,.23.04.07.04.1.1.08.17-.03.22-.06.44-.08.66-.03.22-.06.44-.08.66-.08.53-.15,1.08-.19,1.64,0,.09-.05.14-.15.17-.1.03-.19,0-.27-.06-.08-.09-.15-.19-.2-.3-.05-.12-.09-.22-.12-.3-.04-.13-.08-.26-.12-.39-.04-.13-.09-.22-.16-.28-.08-.09-.26-.15-.53-.21-.27-.05-.56-.09-.87-.11s-.63-.03-.94-.03h-1.12v5.84c.25.45.63.77,1.13.96.5.19.98.29,1.44.29.6,0,1.13-.17,1.57-.5s.74-.82.89-1.47c.01-.06.05-.09.11-.11.06-.01.11-.02.17-.01.06,0,.11.03.16.06.05.04.07.08.05.14-.08.33-.15.67-.2,1.01Z" style="fill:#5e6d6e; stroke-width:0px;"/><path d="M47.76,16.25s-.09.07-.14.09c-.22.07-.45.15-.66.24-.22.09-.33.25-.33.5,0,2.41.01,4.82.03,7.22.02,2.41-.06,4.81-.24,7.2-.01.09-.07.14-.16.17-.09.03-.18.01-.26-.04-.9-.78-1.79-1.61-2.66-2.49-.88-.88-1.74-1.78-2.59-2.71-.85-.93-1.69-1.87-2.52-2.81-.83-.94-1.64-1.87-2.44-2.78-.24-.29-.44-.53-.61-.71-.17-.19-.38-.43-.63-.71-.04.42-.06.81-.06,1.19,0,.72.01,1.43.04,2.14.03.71.06,1.41.08,2.12.03.74.06,1.46.08,2.17.03.71.04,1.43.04,2.15,0,.35.03.62.08.82.06.2.13.36.22.48.09.12.2.2.33.25.13.05.25.09.38.12.14.03.28.07.43.12.15.05.3.13.45.23.1.06.13.13.08.21-.04.08-.12.12-.23.12l-2.67-.06c-.37-.01-.74,0-1.12.05-.38.05-.74.04-1.07-.03-.13-.03-.18-.09-.16-.19.02-.1.09-.17.22-.19l.29-.06c.32-.07.59-.22.79-.44.2-.22.31-.52.31-.88v-13.63c0-.12.03-.21.08-.29.06-.08.13-.16.21-.25.11-.09.22-.09.34,0,3.89,4.08,7.68,8.22,11.39,12.41,0-.12,0-.23.01-.34,0-.11.01-.22.01-.34,0-1.59-.02-3.17-.07-4.74-.05-1.57-.07-3.15-.07-4.74,0-.33-.04-.59-.11-.78-.07-.19-.16-.33-.26-.42-.11-.09-.22-.15-.35-.18-.13-.03-.25-.06-.38-.09-.15-.03-.29-.06-.41-.09-.12-.03-.21-.09-.28-.17-.08-.06-.11-.12-.07-.19.03-.07.11-.11.22-.11h1.52c.49,0,.99,0,1.49-.01.51,0,1.01,0,1.52.03l.04.37s-.09.04-.14.09Z" style="fill:#5e6d6e; stroke-width:0px;"/><path d="M62.51,17.23c-.04.4-.09.78-.18,1.16-.03.1-.11.15-.25.15-.13,0-.2-.05-.23-.15-.13-.66-.4-1.1-.81-1.32-.41-.22-.92-.32-1.5-.32-.15,0-.29,0-.42.01-.13,0-.26.02-.4.03-.13.01-.27.03-.43.03-.16,0-.3.01-.41.01h-.36c-.11,0-.22,0-.32-.02v12.28s.01.15.03.31c.02.17.04.34.06.51.02.17.05.33.07.48.03.14.05.22.06.24.14.14.28.23.42.26.14.03.27.05.4.06.2.01.36.04.51.06.14.03.25.12.32.26.04.07.04.13,0,.18-.04.05-.11.08-.21.08-.86,0-1.71,0-2.56.02-.85.01-1.7,0-2.56-.02-.14-.01-.22-.07-.23-.17-.01-.1.05-.17.19-.19.29-.06.53-.12.69-.18.17-.06.29-.16.38-.29.08-.13.14-.3.16-.5.02-.2.03-.48.03-.82v-12.61h-3.26c-.41,0-.76.15-1.07.44-.31.3-.55.63-.72,1.01-.04.09-.12.13-.24.12-.12,0-.19-.06-.22-.16-.01-.06-.02-.11-.03-.16,0-.05-.01-.11-.01-.18,0-.26.04-.54.13-.85.08-.31.18-.62.27-.94.04-.13.07-.25.09-.37.02-.12.05-.23.07-.35.03-.07.08-.12.16-.14.08-.02.15-.02.22.01.08.06.2.11.36.16.15.05.32.1.49.14.18.04.34.08.51.1.16.02.28.03.37.03h9.01c.08,0,.19-.02.33-.05.13-.04.26-.07.37-.1.07-.03.15-.05.24-.05.09,0,.17-.02.24-.03.07-.01.14,0,.2.02.06.03.09.08.09.15v.48c0,.4-.02.8-.05,1.2Z" style="fill:#5e6d6e; stroke-width:0px;"/><path d="M75.78,31.55c-.41,0-.82-.01-1.24-.01-.31,0-.68,0-1.12.02-.44.01-.8,0-1.09-.02-.11-.01-.19-.05-.23-.11-.04-.06-.02-.12.06-.19l.74-.39c-.34-.91-.68-1.82-1.02-2.73-.34-.91-.68-1.82-1-2.73h-4.15c-.11.26-.26.64-.43,1.14-.18.5-.35,1.01-.52,1.54s-.31,1.02-.43,1.49c-.12.47-.18.8-.18.98,0,.25.11.41.33.49.22.08.43.13.64.16.14.03.21.1.2.21,0,.11-.08.16-.22.16l-4.38-.02c-.06-.06-.09-.1-.11-.13-.03-.06-.01-.12.04-.17.03-.04.07-.06.14-.05.06,0,.1.01.12.01.18,0,.36-.05.54-.16.18-.11.34-.24.51-.41.16-.17.3-.35.42-.54.12-.19.21-.38.28-.55.36-.95.71-1.93,1.04-2.93.33-1,.66-1.98,1-2.93.49-1.4.99-2.79,1.49-4.17s1.02-2.78,1.54-4.17c.03-.06.08-.11.15-.15.07-.04.13-.03.19.04.24.27.46.67.65,1.19.2.52.37,1,.53,1.45.06.09.09.17.12.26.02.09.05.16.07.22.17.46.35.93.56,1.41.2.48.4.97.58,1.47.25.69.52,1.41.79,2.16.27.75.56,1.51.85,2.27.29.76.59,1.51.89,2.24.3.73.6,1.42.89,2.07.2.42.47.71.83.89.36.17.74.27,1.15.3v.39c-.41.03-.81.04-1.22.03ZM68.73,19.04c-.28.91-.55,1.78-.81,2.61-.26.83-.54,1.7-.85,2.61h3.39l-1.73-5.21Z" style="fill:#5e6d6e; stroke-width:0px;"/><path d="M88.11,28.66c0,.06-.01.12-.01.19-.06.53-.1,1.01-.13,1.44-.03.43-.06.83-.08,1.2-.42-.04-.84-.07-1.25-.08-.41,0-.82-.01-1.23-.01h-1.12c-.38,0-.76,0-1.14.02-.39.01-.78.01-1.16,0-.38-.01-.76-.02-1.16-.02s-.8.02-1.18.06-.76.05-1.14.02c-.14-.01-.21-.08-.2-.21,0-.12.08-.18.22-.18.25-.01.46-.08.61-.18.15-.11.27-.25.36-.42.08-.17.14-.37.18-.58.03-.22.05-.45.05-.69v-11.94c0-.25-.03-.44-.08-.58-.06-.14-.13-.25-.21-.31-.08-.06-.18-.11-.28-.13-.11-.02-.21-.04-.31-.05-.18-.01-.34-.04-.48-.09-.14-.04-.24-.14-.29-.28-.04-.07-.04-.14.01-.19.05-.06.12-.09.22-.09h2.88c.38,0,.76-.01,1.15-.03.39-.02.75.03,1.1.14.11.03.16.1.14.23-.02.12-.09.18-.22.16l-.29-.02c-.32-.03-.59.06-.8.26-.21.2-.32.48-.32.84v10.99c0,.76.24,1.36.72,1.8.48.43,1.07.65,1.77.65s1.32-.2,1.89-.61c.58-.4,1.02-.94,1.33-1.6.03-.04.07-.07.14-.09.06-.01.12-.02.17-.01.05,0,.09.03.14.06s.06.08.04.14c-.01.07-.02.14-.03.19Z" style="fill:#5e6d6e; stroke-width:0px;"/><path d="M116.31,31.39c-.05.08-.15.12-.29.12h-4.36c-.25,0-.51,0-.79-.03-.28-.02-.55-.05-.79-.1-.25-.04-.44-.1-.58-.18-.16-.07-.19-.18-.09-.31.1-.14.22-.18.36-.12.18.07.32.11.42.11.19,0,.35-.09.47-.27.12-.18.22-.4.3-.65.08-.25.13-.51.16-.77.03-.26.04-.48.04-.66v-7.46h-10.51v7.38c0,.43.03.81.08,1.13.05.32.15.57.3.77.15.2.36.35.63.45.27.1.63.13,1.07.1.18-.02.27.05.29.22s-.06.25-.24.27c-1.06.05-2.12.08-3.19.08s-2.2-.03-3.27-.08c-.16-.02-.24-.09-.25-.23,0-.14.07-.22.22-.26.39-.07.69-.15.9-.24.21-.09.37-.22.48-.38.11-.16.17-.38.18-.65.02-.27.03-.63.03-1.09v-15.03c0-.31-.03-.55-.09-.73-.06-.18-.15-.31-.25-.39-.11-.08-.22-.14-.36-.16-.13-.03-.26-.05-.38-.07-.25-.02-.45-.05-.62-.11-.17-.05-.29-.17-.36-.35-.05-.09-.05-.17.01-.24.06-.07.15-.11.28-.11,1.04,0,2.06.01,3.08.04,1.01.03,2.03.09,3.05.18.16.02.23.1.22.26,0,.15-.09.23-.25.23-.41.02-.76.14-1.07.38-.31.24-.46.59-.46,1.06v6.24h10.48v-6.21c0-.31-.04-.58-.13-.83-.09-.24-.26-.4-.53-.47-.11-.04-.2-.05-.29-.05-.26-.02-.52-.05-.78-.11-.26-.05-.4-.2-.44-.43-.02-.07,0-.14.08-.19.07-.05.15-.08.24-.08,1.04,0,2.07,0,3.1.03,1.03.02,2.05.06,3.08.14.16.02.24.09.25.23,0,.14-.07.22-.22.26-.46.09-.84.22-1.14.39-.3.17-.45.54-.45,1.1v14.97c0,.09.02.25.05.47.04.23.08.46.13.71s.11.47.18.66c.07.2.14.31.21.33.03.04.12.06.25.07.13,0,.24.02.33.04.19.02.39.05.59.09.2.05.38.15.54.31.11.09.13.18.08.26Z" style="fill:#5e6d6e; stroke-width:0px;"/><path d="M131.89,16.25c-.25.16-.37.45-.37.87v8.18c0,.91-.14,1.76-.42,2.55-.28.79-.68,1.49-1.21,2.08-.53.59-1.16,1.06-1.9,1.41-.74.35-1.58.52-2.5.52-.7,0-1.37-.11-2.01-.34-.64-.22-1.22-.53-1.76-.93-.53-.4-1-.87-1.41-1.43-.41-.56-.73-1.16-.97-1.81-.03-.06-.06-.16-.08-.3-.03-.14-.05-.3-.07-.45-.02-.16-.04-.31-.06-.44-.02-.14-.03-.23-.03-.29v-8.59c0-.23-.03-.45-.08-.65-.06-.2-.18-.34-.36-.41-.04-.01-.08-.02-.13-.01-.04,0-.11,0-.19-.01-.2-.01-.4-.05-.61-.11-.21-.06-.33-.17-.36-.32-.01-.06,0-.1.06-.14.06-.04.12-.05.19-.05l.8.02c.69.03,1.37.02,2.06-.03.69-.05,1.38-.04,2.08.03.14.01.21.08.21.19s-.07.18-.21.19c-.38.04-.68.14-.89.28-.22.14-.33.43-.33.87v2.31c0,.76,0,1.54-.02,2.31-.01.78-.02,1.55-.01,2.31,0,.76.01,1.54.01,2.31,0,.65.11,1.23.32,1.75s.5.97.87,1.34c.37.38.81.66,1.33.87.51.2,1.07.3,1.67.3s1.17-.1,1.69-.31c.53-.21.98-.5,1.37-.88.39-.37.69-.83.91-1.36.22-.53.33-1.12.33-1.77v-2.29c0-.75,0-1.51-.02-2.27v-1.08c0-.39,0-.78-.01-1.18,0-.4-.01-.79-.01-1.18v-1.1c0-.23-.03-.45-.08-.65-.06-.2-.18-.34-.36-.41-.04-.01-.08-.02-.13-.01-.04,0-.11,0-.19-.01-.2-.01-.4-.05-.61-.1-.21-.05-.33-.15-.36-.31-.01-.06,0-.1.06-.14.06-.04.12-.05.19-.05.76,0,1.51-.01,2.25-.03.74-.02,1.49,0,2.25.05l.02.39c-.37.06-.67.17-.92.32Z" style="fill:#5e6d6e; stroke-width:0px;"/><path d="M144.48,28.44c-.2.51-.48.97-.83,1.37-.35.4-.76.75-1.24,1.03-.48.28-.99.47-1.54.57-.13.03-.29.05-.48.05-.2,0-.41.01-.65.01s-.49,0-.76-.01c-.27,0-.53-.02-.78-.03-.2-.01-.38-.02-.55-.02h-3.28l-.08-.37c.29-.1.53-.19.71-.28.18-.09.31-.19.4-.32.09-.13.15-.3.17-.52.02-.22.03-.5.03-.87v-11.94c0-.22-.02-.39-.06-.52-.04-.13-.1-.23-.18-.29-.08-.06-.16-.1-.25-.12-.09-.01-.18-.03-.26-.04-.18-.03-.35-.06-.49-.1-.15-.04-.28-.13-.39-.29-.07-.07-.07-.14-.01-.22.06-.07.15-.1.26-.09.38.1.77.15,1.18.15.28,0,.56-.01.84-.03.28-.02.57-.05.86-.08.28-.03.56-.05.85-.08.29-.02.59-.03.92-.03.49,0,1,.07,1.53.21.53.14,1,.35,1.43.64.43.29.78.65,1.06,1.08.28.43.42.94.42,1.54,0,.35-.05.68-.16,1.01s-.25.64-.42.94c-.18.3-.38.59-.6.87-.22.27-.46.53-.69.76.48.16.92.38,1.34.66s.77.61,1.07.98c.3.38.54.8.71,1.27.17.47.25.97.25,1.5,0,.56-.1,1.1-.31,1.61ZM142.48,26.25c-.12-.4-.29-.77-.51-1.11-.22-.35-.48-.66-.78-.94-.3-.28-.63-.51-.98-.68-.34-.17-.73-.28-1.17-.31-.44-.04-.86-.05-1.25-.05v5.84c0,.25.07.47.21.66s.32.36.53.51c.21.14.44.25.68.32.25.07.47.11.66.11.41,0,.78-.08,1.13-.25.34-.17.64-.39.88-.68.25-.29.43-.62.57-.99.13-.37.2-.77.2-1.19s-.06-.83-.18-1.22ZM141.08,18.06c-.11-.35-.27-.65-.47-.92-.2-.27-.46-.48-.76-.64-.3-.16-.64-.24-1.02-.24s-.7.05-1.01.15v5.67c.51,0,.96-.04,1.38-.11.41-.07.78-.22,1.08-.43.31-.22.55-.52.72-.9.17-.38.25-.88.25-1.48,0-.39-.06-.76-.17-1.1Z" style="fill:#5e6d6e; stroke-width:0px;"/><path d="M102.6,45.2c-.2.36-.46.65-.8.87-.33.22-.72.38-1.16.48-.44.1-.9.15-1.39.15-.2,0-.4,0-.6-.01-.2,0-.4-.02-.6-.03-.22-.01-.45-.03-.68-.04-.24-.01-.46-.02-.67,0-.07,0-.11-.03-.11-.08,0-.05.02-.08.09-.1.2-.03.33-.09.39-.18.06-.08.09-.24.09-.46v-3.97c0-.13-.04-.21-.12-.24-.08-.03-.16-.06-.24-.07-.06-.01-.12-.03-.18-.04-.06-.02-.1-.04-.12-.08-.01-.03-.01-.06.01-.08.02-.02.05-.03.1-.03.1,0,.19,0,.28,0,.09,0,.19,0,.28.01.12,0,.25.01.39.02.14,0,.26,0,.38,0,.29,0,.59,0,.89-.03.14,0,.3-.01.46-.02.17,0,.32,0,.46,0,.27,0,.58.05.93.16.35.11.68.25.99.44.31.19.58.41.81.66.23.25.36.52.39.81.01.09.02.19.02.28v.27c0,.52-.1.96-.3,1.32ZM101.72,43.06c-.17-.32-.39-.58-.67-.78-.28-.21-.6-.36-.97-.46-.37-.1-.75-.16-1.15-.16-.14,0-.27,0-.41.02-.14.01-.27.04-.41.08v3.77c0,.18.03.33.08.43s.13.18.22.23c.1.05.22.08.35.1.14.01.29.02.46.02.36,0,.71-.04,1.04-.12.33-.08.63-.2.88-.38.25-.17.45-.39.6-.66s.22-.6.22-.99c0-.42-.08-.78-.25-1.1Z" style="fill:#5ff101; stroke-width:0px;"/><path d="M107.02,46.55l-.08.04s-.12.02-.23.02-.24,0-.37,0c-.13,0-.26,0-.38,0-.12,0-.2,0-.25,0-.11,0-.22,0-.33,0-.11,0-.22,0-.33,0-.24,0-.49,0-.73,0-.24,0-.49,0-.72-.01-.06,0-.09-.04-.09-.09,0-.06.04-.08.1-.08.19,0,.32-.06.38-.17.06-.11.09-.25.09-.43v-4.01c0-.11-.03-.18-.1-.22-.06-.04-.13-.06-.21-.07-.05-.01-.11-.03-.17-.04-.06-.01-.11-.04-.17-.07-.05-.03-.07-.06-.05-.1.02-.04.06-.06.12-.06s.14,0,.24,0c.1,0,.21,0,.33,0,.2,0,.41.01.64.01.23,0,.47,0,.7,0,.34,0,.65,0,.93-.02s.47-.04.56-.07c.05-.01.09,0,.12,0,.03.02.05.05.04.08-.01.12-.03.24-.06.34-.03.1-.05.21-.08.31-.01.05-.02.09-.03.13,0,.04-.02.08-.03.12-.01.05-.05.07-.12.07s-.11-.03-.11-.08c0-.11-.03-.2-.08-.26s-.11-.12-.18-.15c-.08-.04-.16-.06-.26-.07-.1-.01-.19-.02-.29-.02-.05,0-.11,0-.16,0-.05,0-.1,0-.16,0-.05,0-.1,0-.15,0-.05,0-.11,0-.16,0h-.18v1.87h1.22s.08-.01.13-.03c.05-.02.11-.04.17-.06h-.01c.05-.03.1-.06.15-.11s.09-.07.13-.09c.05-.01.09,0,.12.01.03.02.04.05.04.08-.01.08-.03.19-.04.3-.01.12-.02.22-.04.3-.01.08-.03.16-.04.23-.01.08-.03.16-.04.25,0,.03-.03.06-.07.07s-.08,0-.11-.02c-.08-.05-.12-.08-.12-.09,0-.02,0-.04,0-.07-.02-.06-.04-.11-.07-.17-.02-.05-.05-.08-.07-.1-.03-.03-.1-.05-.2-.06s-.22-.03-.34-.03c-.13,0-.25,0-.37,0h-.44v1.9c.11.14.26.25.46.31.2.07.38.1.56.1.22,0,.42-.05.6-.15s.31-.27.37-.49c0-.02.02-.03.05-.04.03,0,.05-.01.08,0,.03,0,.05.01.08.03.02.02.03.03.03.05l-.21.9Z" style="fill:#5ff101; stroke-width:0px;"/><path d="M114.46,41.46c-.06,0-.11.02-.15.03h.01c-.08.02-.16.05-.24.08-.08.03-.12.08-.12.16v.62c0,.2,0,.39.01.6,0,.19,0,.4,0,.62,0,.22,0,.43,0,.61,0,.42,0,.83-.02,1.24-.01.41-.04.82-.08,1.23,0,.04-.03.06-.07.07-.04,0-.08,0-.12-.01-.76-.55-1.48-1.13-2.16-1.75s-1.34-1.25-1.99-1.88h.01l-.53-.5c0,.06-.01.12-.01.18v.19c0,.25,0,.49.02.73s.02.49.04.73c.01.24.02.48.03.72,0,.24.01.49.01.73,0,.11.01.2.03.27.02.07.05.12.09.15s.08.06.12.07c.04.01.09.02.14.03.06.01.13.02.19.03.07,0,.13.04.19.08.05.03.07.06.05.1-.02.04-.06.06-.12.06-.12,0-.23,0-.36,0s-.24,0-.36,0h-.36c-.16,0-.31,0-.46,0s-.3-.03-.44-.06c-.06-.01-.09-.05-.08-.1.01-.05.05-.08.11-.08h.12c.12.01.21-.01.3-.08.08-.07.12-.17.12-.3v-4.61c0-.05.02-.1.05-.13.03-.04.07-.07.1-.09.02-.01.05-.02.08-.01.03,0,.05.01.07.02.78.69,1.56,1.39,2.33,2.09.77.7,1.53,1.41,2.3,2.13,0-.2,0-.4,0-.59,0-.19-.01-.39-.02-.59-.01-.16-.02-.34-.03-.52,0-.18-.01-.36-.01-.52,0-.1,0-.21,0-.3,0-.1,0-.2,0-.3v-.6c0-.1-.01-.19-.04-.25-.03-.06-.06-.11-.1-.14-.04-.03-.09-.05-.13-.06-.05,0-.1-.02-.14-.02-.13-.01-.23-.04-.32-.09-.05-.02-.06-.05-.04-.09.02-.04.06-.06.11-.06h.37c.25-.02.5-.01.74,0,.24,0,.49.02.73.03l.04.17Z" style="fill:#5ff101; stroke-width:0px;"/><path d="M120.27,42.25s-.05.07-.12.07c-.06,0-.1-.02-.11-.07-.05-.23-.16-.37-.33-.43-.17-.06-.37-.09-.59-.09h-.16c-.05,0-.11,0-.17,0-.06,0-.13,0-.19,0h-.2c-.05,0-.09,0-.1,0-.01,0-.04,0-.09,0v4.05s0,.06.02.11.02.11.03.18c.01.06.02.12.04.17.01.05.03.08.04.08h.01s.07.02.13.03c.06,0,.11.01.15.02.07,0,.14.02.21.03.06.01.11.05.14.1.02.03.02.06,0,.09-.02.03-.06.04-.11.04-.35,0-.69,0-1.04,0-.34,0-.69-.02-1.04-.03-.06,0-.09-.03-.1-.08,0-.05.03-.08.09-.1.1-.01.19-.03.25-.04.07-.02.12-.04.15-.08.03-.04.06-.09.07-.16.01-.07.02-.16.02-.28v-4.12h-1.3c-.15,0-.29.05-.41.14-.13.09-.23.2-.3.33-.03.04-.07.06-.12.05-.05,0-.09-.03-.1-.07,0-.02-.01-.06-.01-.13,0-.08.02-.18.05-.29.03-.11.07-.21.1-.31.01-.03.03-.07.04-.11.01-.04.02-.08.04-.12.01-.03.04-.05.07-.06.03,0,.07,0,.1,0,.03.02.07.04.14.05.06.02.13.03.2.04.07.01.13.02.2.03.06,0,.12.01.16.01h3.64s.08,0,.13-.02.11-.03.16-.04h-.01s.05-.02.08-.02c.03,0,.07,0,.11-.01.09-.01.13.02.13.09v.16c0,.27-.03.53-.09.79Z" style="fill:#5ff101; stroke-width:0px;"/><path d="M123.01,46.64c-.12,0-.24,0-.36,0-.12,0-.24,0-.37,0h-.39c-.05,0-.12,0-.2,0-.08,0-.17.01-.26.02-.09,0-.18,0-.27,0-.08,0-.15-.01-.2-.03-.06-.02-.08-.06-.05-.12.03-.06.07-.09.13-.07.03.01.06.01.09,0,.02,0,.04-.01.06-.01.05,0,.1-.02.14-.06.04-.04.07-.1.09-.16s.04-.13.05-.2c.01-.07.02-.12.02-.18v-3.98c0-.13-.06-.22-.17-.28-.11-.06-.23-.09-.35-.1-.07,0-.1-.03-.1-.08,0-.05.04-.08.11-.08.16-.01.33-.01.49,0,.16.01.32.02.48.02s.31,0,.46-.02c.15-.01.3-.01.46,0,.06,0,.09.03.1.08s-.03.07-.09.09c-.14.02-.25.05-.35.09-.1.04-.14.14-.14.29v3.95s0,.07.02.12c.01.05.02.11.04.17.01.06.03.11.05.17.02.05.04.09.05.11.02,0,.05.01.09.02.04,0,.08,0,.11,0,.07,0,.14,0,.2.01.06,0,.11.04.17.08l-.08.16Z" style="fill:#5ff101; stroke-width:0px;"/><path d="M126.78,45.85c-.16.19-.35.35-.58.48-.23.13-.48.23-.75.3-.27.07-.51.1-.73.1-.11,0-.23,0-.36-.03s-.25-.06-.36-.11c-.11-.05-.21-.12-.29-.21-.08-.09-.12-.2-.12-.34,0-.07,0-.13.03-.2.02-.07.04-.14.07-.21.03-.07.05-.16.06-.27,0-.03.01-.04.04-.05.03,0,.05-.01.08-.01s.05,0,.08.02c.02.01.04.03.04.06v.12c-.01.14.01.26.08.36.06.1.15.19.26.25.11.07.23.12.36.15.13.03.26.05.39.05.11,0,.23-.02.36-.05.13-.04.26-.09.37-.15.12-.07.21-.15.29-.24.07-.1.11-.21.11-.34,0-.12-.04-.23-.11-.35-.07-.12-.16-.24-.28-.36s-.24-.24-.38-.36c-.14-.12-.28-.23-.42-.35-.16-.13-.32-.26-.48-.4-.16-.14-.3-.28-.43-.42-.13-.14-.23-.28-.31-.42-.08-.14-.12-.29-.12-.43,0-.24.08-.44.24-.61.16-.16.36-.29.59-.39.23-.1.47-.17.73-.21.26-.04.47-.06.66-.06.29,0,.58.03.86.09.07.01.11.05.09.1v.27c0,.13,0,.26-.02.4s-.06.24-.14.33c-.04.03-.09.04-.14.03-.05-.01-.08-.04-.08-.09,0-.12-.03-.23-.09-.32s-.13-.17-.22-.23c-.09-.07-.19-.11-.31-.15-.11-.03-.23-.05-.34-.05s-.23.02-.34.05c-.11.04-.21.09-.3.15-.09.07-.16.15-.21.24-.05.1-.08.21-.08.33,0,.11.03.22.1.33.06.11.15.22.25.33.11.11.22.21.35.31.13.1.25.19.38.28.16.12.32.24.48.36.16.12.31.25.44.39s.23.28.32.43c.08.15.12.31.12.48,0,.25-.08.47-.23.66Z" style="fill:#5ff101; stroke-width:0px;"/><path d="M132.7,42.25s-.05.07-.12.07c-.06,0-.1-.02-.11-.07-.05-.23-.16-.37-.33-.43-.17-.06-.37-.09-.59-.09h-.16c-.05,0-.11,0-.17,0-.06,0-.13,0-.19,0h-.2c-.05,0-.09,0-.1,0-.01,0-.04,0-.09,0v4.05s0,.06.02.11.02.11.03.18c.01.06.02.12.04.17.01.05.03.08.04.08h.01s.07.02.13.03c.06,0,.11.01.15.02.07,0,.14.02.21.03.06.01.11.05.14.1.02.03.02.06,0,.09-.02.03-.06.04-.11.04-.35,0-.69,0-1.04,0-.34,0-.69-.02-1.04-.03-.06,0-.09-.03-.1-.08,0-.05.03-.08.09-.1.1-.01.19-.03.25-.04.07-.02.12-.04.15-.08.03-.04.06-.09.07-.16.01-.07.02-.16.02-.28v-4.12h-1.3c-.15,0-.29.05-.41.14-.13.09-.23.2-.3.33-.03.04-.07.06-.12.05-.05,0-.09-.03-.1-.07,0-.02-.01-.06-.01-.13,0-.08.02-.18.05-.29.03-.11.07-.21.1-.31.01-.03.03-.07.04-.11.01-.04.02-.08.04-.12.01-.03.04-.05.07-.06.03,0,.07,0,.1,0,.03.02.07.04.14.05.06.02.13.03.2.04.07.01.13.02.2.03.06,0,.12.01.16.01h3.64s.08,0,.13-.02.11-.03.16-.04h-.01s.05-.02.08-.02c.03,0,.07,0,.11-.01.09-.01.13.02.13.09v.16c0,.27-.03.53-.09.79Z" style="fill:#5ff101; stroke-width:0px;"/><path d="M138.81,46.75c-.24,0-.45-.04-.64-.11-.19-.07-.36-.17-.52-.28s-.3-.25-.44-.4-.27-.3-.4-.46c-.12-.14-.23-.28-.35-.41-.12-.13-.24-.25-.37-.35-.12-.1-.26-.16-.44-.18-.18-.02-.35-.03-.49-.03-.05,0-.09,0-.11,0s-.05,0-.11,0v1.29s0,.07.02.12.02.11.04.18c.01.06.03.12.05.17.02.05.03.08.05.08.02.01.05.02.09.02.05,0,.09,0,.12,0,.06,0,.12.01.19.02.06,0,.12.03.18.07.05.03.07.06.05.1-.02.04-.06.06-.12.06-.35,0-.69,0-1.04,0-.34,0-.69-.01-1.04-.03-.06,0-.09-.03-.1-.08,0-.05.03-.08.09-.09.11-.01.2-.03.26-.04.06-.02.11-.04.15-.08.03-.04.06-.1.07-.17s.02-.17.02-.3v-3.97c0-.16-.04-.25-.11-.28-.07-.03-.14-.05-.22-.06-.08,0-.14-.02-.19-.03-.05-.01-.1-.05-.13-.1-.03-.03-.03-.06-.01-.09.02-.03.06-.04.11-.04h.39c.08,0,.16,0,.24,0,.11,0,.21,0,.31,0h.52c.07,0,.13,0,.2,0,.06,0,.13,0,.21,0,.25,0,.52.01.79.04.28.03.53.08.75.18s.41.22.56.4c.15.18.22.41.22.71,0,.15-.03.3-.09.45-.06.15-.13.29-.22.43s-.19.27-.31.39-.23.23-.34.33c.1.1.2.2.3.31.1.11.2.22.3.34.16.19.34.38.52.58s.37.37.57.53.4.28.6.38c.2.09.41.13.61.1l.06.17c-.26.1-.54.16-.84.16ZM136.59,42.44c-.06-.17-.14-.31-.25-.43-.11-.12-.25-.22-.4-.3s-.33-.11-.52-.11c-.16,0-.32.02-.47.06v2.36c.12.01.24.02.36.03.13,0,.25,0,.36,0,.33,0,.58-.1.75-.29.17-.2.25-.46.25-.79,0-.18-.03-.36-.09-.52Z" style="fill:#5ff101; stroke-width:0px;"/><path d="M144.27,41.7c-.17.13-.34.28-.53.47-.19.19-.37.39-.56.6-.19.21-.36.43-.5.64s-.27.4-.36.58-.14.32-.14.43v1.55c0,.19.07.31.21.37.14.06.29.08.46.07.07,0,.11.03.11.08,0,.06-.02.09-.09.09-.2.01-.39.02-.59.03s-.39,0-.59,0c-.16,0-.31,0-.47,0s-.31-.03-.46-.06l.07-.17s.06,0,.11,0c.1,0,.17-.05.22-.14.04-.09.07-.19.07-.29v-1.46c0-.09-.05-.23-.15-.41-.1-.18-.23-.38-.38-.6-.16-.22-.33-.45-.53-.68-.19-.23-.38-.45-.57-.65s-.36-.36-.53-.49c-.16-.13-.29-.21-.38-.23-.06-.01-.09-.04-.08-.09,0-.05.04-.07.1-.08.29-.01.57-.02.85-.03.28,0,.57,0,.85,0,.05,0,.09.02.11.05.02.03.01.07-.03.1-.01,0-.04.02-.08.05-.02.01-.04.03-.07.05-.02.02-.04.04-.04.07,0,.04.05.14.15.31.1.17.22.36.36.57.14.22.29.44.45.66.16.22.3.42.42.57l.08.11c.06-.11.13-.23.21-.35.08-.12.16-.23.24-.34.04-.07.11-.15.2-.25.07-.1.16-.2.24-.32.09-.11.17-.23.25-.34.08-.11.14-.22.19-.31.05-.09.08-.17.08-.22s-.02-.09-.05-.13c-.03-.03-.08-.06-.12-.08-.05-.01-.08-.04-.07-.08,0-.04.04-.07.1-.07.14-.01.27-.02.39-.02h.39c.14,0,.27,0,.41,0,.14,0,.27,0,.41.01l.03.17c-.12.03-.26.11-.42.24Z" style="fill:#5ff101; stroke-width:0px;"/></g></svg>